<?xml version="1.0" standalone="no"?>
<!DOCTYPE svg PUBLIC "-//W3C//DTD SVG 20010904//EN"
 "http://www.w3.org/TR/2001/REC-SVG-20010904/DTD/svg10.dtd">
<svg version="1.0" xmlns="http://www.w3.org/2000/svg"
 width="560.000000pt" height="560.000000pt" viewBox="0 0 560.000000 560.000000"
 preserveAspectRatio="xMidYMid meet">
<metadata>
Created by potrace 1.11, written by Peter Selinger 2001-2013
</metadata>
<g transform="translate(0.000000,560.000000) scale(0.100000,-0.100000)"
fill="#000000" stroke="none">
<path d="M2640 5589 c-704 -37 -1353 -333 -1850 -846 -356 -365 -598 -804
-715 -1295 -90 -378 -98 -819 -21 -1200 173 -854 723 -1570 1506 -1959 778
-386 1702 -386 2480 0 798 397 1354 1133 1514 2006 69 371 58 790 -29 1153
-179 750 -662 1393 -1340 1782 -350 202 -801 337 -1183 355 -59 3 -132 7 -162
9 -30 1 -120 -1 -200 -5z m-1080 -1797 c0 -5 80 -12 177 -15 106 -4 179 -11
181 -17 2 -5 26 -10 53 -10 27 0 49 -4 49 -9 0 -5 23 -12 50 -16 28 -4 50 -11
50 -16 0 -5 7 -9 15 -9 8 0 15 -4 15 -10 0 -5 18 -13 40 -16 22 -4 40 -10 40
-15 0 -5 11 -9 25 -9 14 0 25 -4 25 -9 0 -5 23 -12 50 -16 28 -4 50 -10 50
-15 0 -4 24 -10 52 -13 29 -4 54 -11 56 -17 2 -5 15 -10 28 -10 13 0 24 -4 24
-9 0 -4 27 -11 60 -15 33 -4 60 -11 60 -16 0 -6 16 -10 35 -10 19 0 35 -4 35
-9 0 -6 32 -13 70 -17 39 -3 70 -11 70 -15 0 -5 22 -9 49 -9 27 0 51 -5 53
-11 5 -16 270 -17 276 -1 2 7 15 12 28 12 13 0 24 4 24 9 0 5 23 12 50 16 28
4 50 11 50 16 0 5 11 9 25 9 14 0 25 4 25 9 0 5 23 12 50 16 28 4 50 11 50 16
0 5 11 9 25 9 14 0 25 4 25 9 0 5 23 12 50 16 28 4 50 10 50 15 0 4 25 11 55
15 30 3 55 11 55 16 0 5 16 9 35 9 19 0 35 4 35 9 0 5 34 12 75 16 41 4 75 11
75 16 0 5 29 9 65 9 37 0 65 4 65 10 0 6 50 10 130 10 80 0 130 -4 130 -10 0
-6 35 -10 85 -10 47 0 85 -4 85 -9 0 -5 45 -12 100 -16 55 -3 100 -11 100 -16
0 -5 18 -9 40 -9 22 0 40 -4 40 -9 0 -5 18 -11 40 -15 22 -3 40 -8 40 -11 0
-9 -91 -95 -101 -95 -11 0 -59 -49 -59 -61 0 -4 -9 -10 -19 -14 -11 -3 -23
-15 -26 -25 -3 -10 -15 -22 -26 -25 -10 -4 -19 -13 -19 -22 0 -9 -18 -33 -40
-54 -22 -21 -40 -43 -40 -49 0 -5 -4 -10 -10 -10 -5 0 -12 -11 -16 -25 -3 -14
-10 -25 -15 -25 -5 0 -9 -9 -9 -20 0 -11 -4 -20 -9 -20 -5 0 -12 -12 -16 -27
-3 -15 -11 -30 -16 -34 -6 -3 -13 -38 -16 -77 -3 -40 -10 -72 -14 -72 -5 0 -9
-34 -9 -75 0 -41 4 -75 8 -75 5 0 12 -51 15 -112 4 -62 11 -114 16 -116 6 -2
13 -30 17 -63 4 -32 11 -59 15 -59 5 0 9 -13 9 -30 0 -16 4 -30 10 -30 5 0 12
-27 16 -60 4 -33 11 -60 15 -60 5 0 9 -11 9 -24 0 -13 4 -26 10 -28 5 -1 12
-36 16 -75 4 -40 11 -73 15 -73 5 0 9 -25 9 -55 0 -30 5 -55 10 -55 6 0 10
-28 10 -65 0 -37 -4 -65 -10 -65 -5 0 -10 -9 -10 -21 0 -11 -7 -27 -15 -35 -8
-9 -15 -11 -15 -5 0 6 -8 11 -19 11 -10 0 -26 11 -37 24 -10 14 -28 27 -41 31
-13 3 -23 10 -23 15 0 6 -7 10 -15 10 -8 0 -15 4 -15 10 0 5 -16 12 -35 16
-19 3 -35 10 -35 15 0 5 -7 9 -15 9 -8 0 -15 4 -15 9 0 5 -18 11 -40 15 -22 3
-40 10 -40 16 0 5 -27 12 -60 16 -33 4 -60 11 -60 15 0 5 -11 9 -24 9 -13 0
-26 4 -28 10 -1 5 -36 12 -75 16 -40 4 -73 11 -73 15 0 5 -36 9 -80 9 -47 0
-80 4 -80 10 0 6 -7 10 -15 10 -8 0 -15 -4 -15 -10 0 -6 -30 -10 -70 -10 -38
0 -70 -4 -70 -9 0 -5 -29 -13 -65 -16 -36 -4 -65 -11 -65 -16 0 -5 -18 -9 -40
-9 -22 0 -40 -4 -40 -9 0 -5 -33 -12 -72 -16 -40 -4 -75 -11 -78 -16 -3 -5
-70 -12 -148 -15 -78 -4 -142 -11 -142 -16 0 -4 -22 -8 -50 -8 -27 0 -50 4
-50 8 0 5 -59 12 -132 15 -72 4 -134 11 -137 16 -4 5 -34 13 -69 17 -34 3 -62
11 -62 15 0 5 -11 9 -25 9 -14 0 -25 4 -25 10 0 5 -18 13 -40 16 -22 4 -40 10
-40 15 0 5 -11 9 -25 9 -14 0 -25 4 -25 9 0 5 -18 11 -40 15 -22 3 -40 11 -40
16 0 6 -15 10 -34 10 -19 0 -36 4 -38 10 -1 5 -31 13 -65 16 -35 4 -63 11 -63
15 0 5 -22 9 -49 9 -29 0 -51 5 -53 12 -6 17 -500 18 -505 1 -3 -7 -20 -13
-39 -13 -19 0 -34 -4 -34 -9 0 -5 -18 -11 -40 -15 -22 -3 -40 -11 -40 -16 0
-6 -7 -10 -15 -10 -8 0 -15 -4 -15 -9 0 -5 -9 -13 -20 -16 -12 -4 -57 -42
-101 -86 -66 -65 -85 -79 -112 -79 -18 0 -41 -3 -52 -5 -15 -4 -27 5 -48 35
l-28 40 7 150 c4 82 11 150 15 150 5 0 9 90 9 200 0 110 -4 200 -9 200 -4 0
-11 69 -15 153 -4 83 -11 154 -17 155 -5 2 -9 21 -9 43 0 21 -4 39 -9 39 -4 0
-11 33 -15 73 -4 39 -11 74 -16 75 -6 2 -10 19 -10 38 0 19 -4 34 -9 34 -5 0
-12 23 -16 50 -4 28 -11 50 -16 50 -5 0 -9 7 -9 15 0 8 -4 15 -9 15 -5 0 -11
18 -15 40 -3 22 -10 40 -15 40 -5 0 -12 16 -15 35 -4 19 -11 35 -16 35 -6 0
-10 7 -10 15 0 8 -4 15 -9 15 -5 0 -13 10 -17 23 -4 12 -18 31 -31 43 -28 24
-22 51 13 60 13 3 24 10 24 15 0 5 18 9 39 9 22 0 41 5 43 10 2 6 75 13 176
17 94 3 172 10 172 15 0 4 101 8 225 8 124 0 225 -4 225 -8z"/>
<path d="M1533 3393 c-7 -2 -13 -12 -13 -20 0 -19 -80 -98 -108 -107 -12 -4
-22 -12 -22 -17 0 -5 -7 -9 -15 -9 -8 0 -15 -4 -15 -10 0 -5 -11 -10 -25 -10
-34 0 -34 -40 0 -66 14 -10 28 -33 31 -51 3 -18 10 -33 15 -33 5 0 9 -11 9
-24 0 -13 6 -26 13 -29 17 -5 16 -579 -2 -585 -15 -5 -14 -21 4 -38 8 -9 15
-11 15 -5 0 5 20 13 45 17 25 3 45 10 45 15 0 5 43 9 95 9 78 0 95 3 95 15 0
8 5 15 10 15 6 0 10 16 10 35 0 19 -4 35 -9 35 -4 0 -11 21 -14 47 -3 26 -10
49 -16 51 -6 2 -11 14 -11 27 0 13 -4 25 -10 27 -5 2 -11 14 -12 28 -3 23 0
25 32 22 19 -2 37 -8 38 -13 2 -5 10 -9 18 -9 8 0 14 -4 14 -10 0 -5 9 -10 20
-10 11 0 23 -7 26 -15 4 -8 12 -15 20 -15 18 0 70 -52 79 -79 3 -11 10 -21 15
-21 5 0 11 -13 15 -30 4 -16 11 -30 16 -30 5 0 9 -14 9 -31 0 -44 17 -55 100
-63 41 -3 77 -11 78 -16 2 -6 15 -10 28 -10 13 0 24 -4 24 -10 0 -5 11 -10 25
-10 20 0 25 5 25 25 0 14 -4 25 -9 25 -6 0 -13 20 -17 45 -3 25 -10 45 -15 45
-5 0 -12 18 -15 40 -4 22 -10 40 -15 40 -5 0 -9 7 -9 15 0 8 -4 15 -9 15 -5 0
-12 23 -16 50 -4 28 -11 50 -16 50 -5 0 -9 11 -9 25 0 14 -4 25 -10 25 -6 0
-10 42 -10 105 0 63 4 105 10 105 6 0 10 16 10 35 0 19 4 35 10 35 5 0 12 16
16 35 3 19 10 35 15 35 5 0 9 7 9 15 0 8 4 15 10 15 5 0 12 15 16 34 3 19 12
37 20 40 8 3 14 14 14 25 0 11 9 22 20 26 12 4 22 19 26 41 3 19 10 34 14 34
12 0 40 29 40 41 0 5 -13 9 -30 9 -16 0 -30 -4 -30 -10 0 -5 -11 -10 -24 -10
-13 0 -26 -6 -28 -12 -4 -10 -50 -13 -182 -13 l-178 0 7 -40 c3 -22 10 -41 15
-43 6 -2 10 -12 10 -22 0 -10 5 -20 11 -22 11 -4 27 -388 16 -388 -13 0 -195
188 -201 208 -4 12 -12 22 -17 22 -5 0 -9 7 -9 15 0 8 -4 15 -10 15 -5 0 -12
11 -16 25 -3 14 -10 25 -14 25 -4 0 -10 18 -14 40 -3 22 -11 40 -16 40 -6 0
-10 16 -10 35 0 19 -4 35 -10 35 -5 0 -10 15 -10 33 0 38 -10 77 -19 76 -3 0
-12 -3 -18 -6z"/>
<path d="M3400 3380 c0 -5 -11 -10 -25 -10 -14 0 -25 -4 -25 -9 0 -5 -18 -11
-40 -15 -22 -3 -40 -11 -40 -16 0 -6 -7 -10 -15 -10 -8 0 -15 -4 -15 -9 0 -5
-16 -12 -35 -15 -19 -4 -35 -11 -35 -16 0 -6 -7 -10 -15 -10 -8 0 -25 -11 -39
-25 -14 -14 -29 -25 -33 -25 -9 0 -43 -36 -43 -46 0 -5 -11 -19 -37 -49 -15
-16 -17 -55 -4 -55 5 0 12 -22 16 -50 4 -27 11 -50 16 -50 5 0 9 -12 9 -26 0
-35 23 -55 70 -61 22 -3 40 -10 40 -14 0 -5 11 -9 25 -9 14 0 25 -4 25 -10 0
-5 11 -10 24 -10 14 0 39 -15 60 -35 33 -31 36 -40 36 -90 0 -30 -4 -55 -9
-55 -5 0 -12 -11 -15 -25 -4 -15 -16 -27 -31 -31 -14 -3 -25 -10 -25 -15 0 -5
-27 -9 -60 -9 -33 0 -60 4 -60 9 0 11 -66 22 -86 14 -8 -3 -14 -13 -14 -23 0
-9 -11 -26 -25 -36 -14 -10 -25 -24 -25 -31 0 -7 -13 -26 -30 -41 -16 -16 -30
-37 -30 -46 0 -9 -3 -16 -7 -16 -5 0 -14 -4 -22 -9 -10 -7 -4 -18 28 -50 22
-22 45 -41 49 -41 5 0 19 -9 32 -20 13 -11 29 -20 37 -20 7 0 13 -4 13 -10 0
-5 11 -10 25 -10 14 0 25 -4 25 -10 0 -6 32 -10 75 -10 43 0 75 4 75 10 0 6
11 10 25 10 14 0 25 4 25 9 0 5 11 12 25 15 14 4 25 11 25 16 0 6 5 10 11 10
14 0 99 85 99 100 0 5 4 10 9 10 5 0 12 16 15 35 4 19 11 35 16 35 6 0 10 11
10 25 0 14 5 25 10 25 6 0 10 37 10 90 0 53 -4 90 -10 90 -5 0 -10 11 -10 25
0 14 -4 25 -9 25 -5 0 -12 11 -15 25 -4 14 -11 25 -16 25 -6 0 -10 7 -10 15 0
8 -4 15 -9 15 -5 0 -12 9 -16 19 -3 11 -16 23 -28 27 -12 4 -29 15 -37 24 -8
9 -25 20 -37 24 -13 4 -23 11 -23 16 0 5 -12 10 -27 12 -26 3 -28 6 -26 48 1
25 7 46 13 48 6 2 17 10 24 18 16 15 56 19 56 5 0 -5 12 -12 27 -16 15 -3 36
-17 48 -31 33 -39 53 -23 61 47 4 32 11 59 15 59 5 0 9 16 9 35 0 19 5 35 10
35 6 0 10 37 10 90 l0 90 -60 0 c-33 0 -60 -4 -60 -10z"/>
<path d="M3643 3326 c-7 -8 -15 -37 -19 -65 -4 -28 -10 -51 -15 -51 -5 0 -9
-16 -9 -35 0 -19 -4 -35 -9 -35 -5 0 -12 -34 -16 -75 -4 -41 -11 -75 -16 -75
-5 0 -9 -13 -9 -30 0 -33 19 -40 43 -15 8 7 26 17 41 21 14 3 26 10 26 15 0 5
23 9 50 9 28 0 50 -4 50 -10 0 -5 8 -10 18 -10 18 0 52 -33 52 -50 0 -6 5 -10
10 -10 6 0 10 -18 10 -40 0 -22 -4 -40 -10 -40 -5 0 -10 -11 -10 -25 0 -14 -4
-25 -10 -25 -5 0 -10 -9 -10 -20 0 -11 -7 -23 -15 -26 -8 -4 -15 -12 -15 -20
0 -12 -21 -35 -112 -121 -23 -22 -35 -39 -42 -61 -4 -11 -16 -24 -27 -27 -10
-4 -19 -15 -19 -26 0 -11 -7 -22 -15 -25 -8 -4 -15 -14 -15 -24 0 -10 -7 -20
-15 -24 -8 -3 -15 -17 -15 -31 0 -14 -4 -25 -10 -25 -5 0 -10 -9 -10 -20 0
-11 -4 -20 -10 -20 -5 0 -10 -18 -10 -40 0 -33 3 -40 20 -40 11 0 20 5 20 10
0 6 7 10 15 10 8 0 15 4 15 9 0 5 29 12 65 16 36 3 65 11 65 16 0 5 50 9 110
9 62 0 110 -4 110 -9 0 -6 20 -13 45 -17 25 -3 45 -10 45 -15 0 -5 9 -9 20 -9
11 0 20 -4 20 -9 0 -5 14 -12 30 -16 17 -4 30 -11 30 -16 0 -5 9 -9 19 -9 11
0 21 -4 23 -9 2 -4 12 -11 24 -15 21 -6 21 -3 26 110 3 64 10 119 15 123 6 3
14 21 18 39 3 17 11 32 16 32 5 0 9 7 9 15 0 8 4 15 9 15 5 0 12 15 15 33 3
18 17 41 31 51 14 10 25 26 25 34 0 12 -13 14 -77 9 -42 -3 -79 -10 -82 -15
-3 -5 -23 -12 -43 -16 -21 -4 -38 -11 -38 -16 0 -6 -9 -10 -20 -10 -11 0 -20
-4 -20 -9 0 -5 -11 -12 -25 -15 -14 -4 -25 -11 -25 -16 0 -6 -5 -10 -11 -10
-7 0 -22 -11 -35 -25 -13 -14 -28 -25 -34 -25 -5 0 -10 -7 -10 -15 0 -8 -9
-15 -20 -15 -11 0 -20 7 -20 15 0 8 5 15 10 15 6 0 10 7 10 15 0 8 4 15 9 15
5 0 12 16 15 35 4 19 11 35 15 35 5 0 12 11 15 25 4 14 11 25 16 25 6 0 10 7
10 15 0 8 4 15 9 15 5 0 12 11 15 25 4 14 11 25 16 25 6 0 10 5 10 11 0 6 6
17 13 24 27 31 37 44 37 51 0 4 16 21 35 40 19 18 35 37 35 43 0 5 81 91 180
190 99 99 180 185 180 190 0 6 5 11 10 11 6 0 10 7 10 16 0 13 -7 15 -42 9
-24 -4 -46 -11 -49 -16 -3 -5 -33 -12 -67 -15 -34 -4 -62 -11 -62 -15 0 -5
-29 -9 -65 -9 -37 0 -65 -4 -65 -10 0 -5 -22 -10 -50 -10 -27 0 -50 5 -50 10
0 6 -28 10 -65 10 -36 0 -65 4 -65 9 0 5 -29 12 -65 16 -36 3 -65 10 -65 15 0
5 -20 12 -45 16 -25 3 -45 10 -45 15 0 5 -7 9 -15 9 -8 0 -15 5 -15 10 0 14
-23 12 -37 -4z"/>
<path d="M2490 3310 c0 -5 -26 -10 -57 -10 -89 0 -103 -7 -103 -45 0 -18 5
-35 11 -37 6 -2 13 -25 16 -51 3 -26 10 -47 14 -47 5 0 9 -13 9 -29 0 -16 5
-31 11 -33 17 -6 17 -390 1 -396 -7 -2 -12 -21 -12 -43 0 -21 -4 -39 -9 -39
-5 0 -12 -22 -16 -50 -4 -27 -11 -50 -16 -50 -5 0 -9 -7 -9 -15 0 -8 -4 -15
-10 -15 -5 0 -10 -11 -10 -25 0 -20 5 -25 25 -25 14 0 25 -4 25 -10 0 -5 9
-10 20 -10 11 0 20 -4 20 -9 0 -5 25 -13 55 -16 30 -4 55 -11 55 -16 0 -5 29
-9 65 -9 36 0 65 4 65 9 0 4 21 11 47 14 26 3 49 10 51 16 2 6 10 11 18 11 8
0 14 5 14 10 0 6 9 10 20 10 11 0 23 7 26 15 4 8 12 15 20 15 16 0 84 66 84
82 0 6 8 18 19 27 10 9 21 26 25 39 4 12 12 22 17 22 5 0 9 7 9 15 0 8 4 15 9
15 5 0 12 23 16 50 4 28 11 50 16 50 5 0 9 29 9 65 0 36 -4 65 -9 65 -4 0 -11
24 -14 52 -4 29 -11 54 -17 56 -5 2 -10 12 -10 23 0 10 -4 19 -9 19 -5 0 -12
13 -16 28 -3 15 -15 34 -25 42 -11 8 -20 20 -20 27 0 15 -97 113 -112 113 -6
0 -18 8 -27 19 -9 10 -27 22 -41 26 -14 4 -28 12 -31 17 -3 5 -43 12 -88 15
-44 3 -81 10 -81 14 0 5 -11 9 -25 9 -14 0 -25 -4 -25 -10z m120 -279 c0 -4
26 -11 57 -14 32 -3 59 -11 61 -17 2 -5 7 -10 12 -10 18 0 80 -69 80 -89 0
-11 5 -21 10 -21 6 0 10 -32 10 -75 0 -41 -4 -75 -9 -75 -5 0 -11 -14 -15 -31
-6 -32 -39 -69 -61 -69 -7 0 -15 -7 -19 -15 -3 -8 -15 -15 -26 -15 -11 0 -20
-4 -20 -10 0 -5 -11 -10 -25 -10 -14 0 -25 -4 -25 -10 0 -5 -13 -10 -29 -10
-29 0 -30 1 -24 38 3 20 10 39 15 40 4 2 8 15 8 28 0 13 5 24 10 24 6 0 10 40
10 100 0 60 -4 100 -10 100 -5 0 -10 9 -10 20 0 11 -4 20 -9 20 -5 0 -12 14
-16 30 -4 17 -11 30 -16 30 -5 0 -9 11 -9 25 0 20 5 25 25 25 14 0 25 -4 25
-9z"/>
</g>
</svg>
