<?xml version="1.0" standalone="no"?>
<!DOCTYPE svg PUBLIC "-//W3C//DTD SVG 20010904//EN"
 "http://www.w3.org/TR/2001/REC-SVG-20010904/DTD/svg10.dtd">
<svg version="1.0" xmlns="http://www.w3.org/2000/svg"
 width="3000.000000pt" height="3000.000000pt" viewBox="0 0 3000.000000 3000.000000"
 preserveAspectRatio="xMidYMid meet">
<metadata>
Created by potrace 1.11, written by Peter Selinger 2001-2013
</metadata>
<g transform="translate(0.000000,3000.000000) scale(0.100000,-0.100000)"
fill="#000000" stroke="none">
<path d="M14743 27753 c-7 -2 -13 -11 -13 -19 0 -9 -4 -13 -9 -10 -5 4 -12 -8
-16 -25 -4 -17 -9 -28 -12 -25 -7 7 -63 -49 -63 -63 0 -6 -3 -10 -7 -10 -20 3
-26 -2 -13 -11 13 -8 12 -10 -3 -10 -10 0 -16 -4 -13 -9 3 -5 -4 -11 -15 -14
-12 -3 -18 -10 -14 -16 3 -6 1 -11 -4 -11 -6 0 -11 -7 -11 -15 0 -8 -4 -14 -9
-12 -5 1 -9 -2 -9 -7 0 -5 -7 -13 -16 -18 -9 -5 -14 -13 -11 -19 4 -5 -1 -9
-9 -9 -9 0 -16 -7 -16 -15 0 -8 -9 -19 -20 -25 -11 -6 -18 -15 -15 -21 4 -5
-1 -9 -10 -9 -9 0 -14 -4 -11 -9 3 -5 -1 -12 -10 -15 -8 -3 -13 -10 -9 -15 3
-6 -6 -18 -20 -27 -14 -9 -25 -22 -25 -30 0 -7 -9 -18 -20 -24 -11 -6 -18 -15
-15 -21 4 -5 1 -8 -6 -7 -7 2 -13 -2 -14 -9 0 -6 -10 -20 -22 -31 -13 -11 -23
-26 -23 -34 0 -8 -13 -25 -30 -38 -16 -12 -29 -25 -28 -29 2 -17 -3 -34 -8
-28 -8 8 -33 -16 -27 -25 2 -5 -1 -8 -6 -8 -6 0 -11 -7 -11 -16 0 -8 -4 -12
-10 -9 -5 3 -10 -1 -10 -10 0 -10 -5 -13 -12 -9 -6 4 -8 3 -5 -3 4 -6 0 -16
-8 -23 -8 -7 -12 -16 -9 -21 5 -9 -11 -13 -31 -9 -5 1 -7 -2 -3 -6 4 -4 3 -13
-3 -21 -6 -7 -8 -13 -5 -13 4 0 -5 -11 -19 -24 -14 -13 -28 -34 -30 -46 -5
-26 -15 -40 -15 -21 0 7 -5 9 -10 6 -6 -4 -8 -11 -5 -16 4 -5 1 -9 -6 -9 -7 0
-10 -3 -6 -6 8 -9 -16 -33 -27 -26 -5 3 -6 0 -3 -5 4 -6 -4 -23 -18 -39 -13
-15 -22 -31 -19 -35 2 -4 -5 -10 -16 -14 -11 -3 -20 -13 -20 -20 0 -8 -10 -24
-22 -35 -20 -18 -21 -22 -8 -31 13 -9 12 -10 -2 -5 -11 3 -19 -2 -23 -15 -4
-10 -11 -19 -16 -19 -5 0 -9 -7 -9 -16 0 -8 -4 -13 -9 -10 -5 4 -12 -7 -16
-24 -4 -16 -11 -30 -16 -30 -5 0 -9 -7 -9 -16 0 -8 -4 -13 -9 -10 -5 3 -12 -5
-15 -19 -4 -14 -11 -25 -16 -25 -6 0 -10 -7 -10 -15 0 -8 -5 -14 -11 -13 -6 2
-13 -6 -15 -17 -1 -11 -8 -21 -13 -23 -6 -2 -11 -10 -11 -18 0 -8 -4 -14 -9
-14 -5 0 -13 -9 -16 -20 -4 -11 -10 -18 -14 -15 -5 2 -8 -5 -7 -18 0 -12 -4
-21 -10 -20 -12 2 -30 -43 -25 -62 2 -5 0 -7 -4 -3 -10 9 -32 -13 -37 -38 -2
-10 -10 -18 -17 -16 -7 1 -11 -3 -9 -10 2 -6 -4 -20 -14 -30 -10 -10 -18 -27
-18 -39 0 -11 -4 -17 -10 -14 -5 3 -10 -1 -10 -10 0 -10 -5 -13 -12 -9 -7 4
-10 4 -6 -1 9 -10 -19 -65 -34 -65 -6 0 -9 -3 -5 -6 3 -4 -1 -13 -9 -21 -8 -9
-13 -22 -10 -29 3 -8 -1 -14 -9 -14 -8 0 -15 -9 -15 -21 0 -11 -4 -17 -10 -14
-5 3 -10 0 -10 -8 0 -8 -7 -17 -15 -21 -8 -3 -15 -9 -14 -13 4 -23 -2 -43 -11
-38 -9 5 -12 -1 -9 -21 0 -4 -5 -10 -13 -15 -13 -8 -14 -12 -17 -44 0 -8 -4
-14 -8 -14 -5 1 -15 1 -23 0 -13 -1 -13 -2 0 -11 9 -6 10 -10 3 -10 -6 0 -14
-14 -18 -30 -4 -17 -10 -28 -15 -25 -8 5 -37 -54 -32 -67 1 -5 -6 -8 -15 -9
-12 0 -13 -2 -5 -6 9 -3 5 -12 -13 -29 -14 -13 -25 -26 -25 -29 0 -3 -1 -17
-1 -32 -1 -21 -3 -23 -6 -9 -4 16 -9 12 -24 -20 -10 -21 -18 -45 -19 -51 0 -7
-4 -13 -10 -13 -5 0 -10 -6 -10 -14 0 -8 -4 -16 -10 -18 -8 -3 -17 -32 -19
-66 -1 -6 -7 -11 -13 -10 -7 2 -12 -3 -10 -9 1 -7 -2 -13 -8 -13 -5 0 -10 -6
-10 -14 0 -8 -7 -22 -16 -30 -8 -9 -11 -16 -4 -16 7 0 6 -5 -2 -14 -7 -8 -17
-11 -23 -8 -5 3 -3 -3 5 -13 9 -11 10 -16 3 -11 -12 6 -16 -4 -12 -31 0 -3 -6
-10 -15 -15 -9 -5 -16 -18 -16 -28 0 -11 -4 -20 -9 -20 -5 0 -12 -10 -16 -22
-10 -36 -27 -68 -35 -63 -4 2 -7 -1 -8 -8 -6 -46 -16 -76 -23 -71 -5 3 -9 -4
-9 -15 0 -12 -4 -21 -10 -21 -5 0 -10 -9 -10 -19 0 -11 -4 -22 -10 -26 -5 -3
-6 -13 -3 -22 4 -11 3 -14 -5 -9 -8 4 -12 0 -12 -11 0 -11 -6 -25 -12 -31 -13
-13 -15 -17 -17 -54 -1 -19 -3 -20 -11 -8 -7 11 -10 6 -11 -20 0 -28 -2 -31
-8 -15 -6 15 -10 8 -16 -33 -4 -28 -11 -49 -16 -46 -5 3 -9 -4 -9 -16 0 -12
-4 -19 -9 -16 -5 3 -12 -11 -16 -32 -4 -20 -10 -39 -15 -42 -4 -3 -10 -14 -12
-25 -1 -11 -7 -23 -11 -26 -9 -6 -15 -31 -16 -62 -1 -10 -5 -15 -11 -12 -6 4
-10 -5 -10 -20 0 -18 -4 -24 -12 -19 -7 4 -10 4 -6 -1 4 -4 1 -22 -6 -39 -7
-17 -11 -37 -8 -45 3 -8 0 -11 -7 -7 -7 5 -11 -2 -11 -18 0 -14 -4 -26 -10
-26 -5 0 -12 -16 -16 -35 -3 -19 -10 -38 -15 -41 -5 -3 -9 -14 -9 -25 0 -10
-4 -19 -9 -19 -5 0 -12 -19 -16 -42 -5 -24 -9 -45 -10 -48 -2 -3 -6 -16 -10
-28 -5 -17 -10 -20 -15 -11 -5 8 -8 3 -8 -12 0 -13 -3 -37 -7 -54 -4 -16 -8
-35 -8 -42 0 -7 -4 -10 -9 -7 -4 3 -8 -6 -8 -20 0 -14 -4 -27 -9 -31 -6 -3
-13 -26 -17 -50 -3 -25 -9 -43 -13 -41 -4 3 -8 -5 -8 -17 -1 -12 -7 -23 -13
-25 -7 -3 -7 -9 2 -20 10 -12 10 -14 1 -8 -8 4 -13 1 -14 -8 -1 -9 -3 -20 -4
-26 -1 -5 -3 -19 -4 -31 -1 -13 -5 -18 -13 -13 -8 5 -7 0 2 -11 8 -10 10 -16
5 -13 -6 4 -15 -5 -22 -18 -6 -13 -7 -22 -2 -18 5 3 9 0 9 -5 0 -6 -4 -11 -8
-11 -7 0 -21 -48 -39 -132 -3 -15 -9 -25 -14 -22 -13 7 -7 -19 6 -28 6 -5 6
-8 -2 -8 -6 0 -14 -18 -18 -40 -4 -22 -12 -40 -18 -40 -8 0 -8 -3 -2 -8 13 -9
18 -35 5 -27 -6 4 -10 -5 -10 -20 0 -14 -4 -24 -8 -21 -5 3 -10 -9 -10 -27 -1
-18 -4 -41 -6 -52 -3 -11 -5 -29 -5 -40 -1 -17 -3 -17 -11 -5 -13 21 -13 3 1
-22 8 -15 8 -19 0 -14 -6 4 -11 0 -11 -11 0 -11 -6 -25 -12 -32 -10 -11 -10
-13 0 -7 6 4 12 3 12 -3 0 -5 -4 -11 -9 -13 -8 -2 -22 -84 -24 -135 0 -7 -4
-10 -9 -6 -5 3 -8 -8 -6 -23 2 -17 -3 -35 -12 -42 -13 -12 -13 -13 0 -6 12 6
13 5 4 -7 -6 -8 -15 -41 -19 -74 -4 -33 -12 -63 -19 -67 -8 -6 -8 -8 2 -8 6 0
12 -8 12 -17 0 -15 -2 -16 -10 -3 -9 13 -10 13 -10 0 0 -9 6 -22 13 -29 10
-11 10 -13 0 -7 -8 5 -14 0 -15 -11 -3 -38 -5 -48 -12 -64 -7 -16 -13 -68 -15
-127 -1 -18 -5 -31 -9 -28 -5 3 -9 -1 -9 -9 0 -8 3 -12 7 -10 4 2 7 -2 7 -10
0 -8 -4 -12 -9 -9 -7 5 -13 -51 -9 -85 2 -7 -2 -11 -7 -7 -5 3 -9 -1 -9 -9 0
-8 5 -15 11 -15 7 0 7 -3 -1 -8 -11 -7 -26 -139 -24 -204 1 -16 -3 -28 -9 -28
-5 0 -10 -5 -10 -11 0 -5 4 -8 8 -5 5 3 9 -1 9 -9 0 -8 -4 -12 -9 -9 -5 4 -9
0 -7 -7 5 -37 -2 -109 -10 -105 -10 7 -9 -20 2 -30 4 -4 2 -13 -3 -19 -12 -15
-16 -77 -6 -93 4 -7 4 -12 -1 -12 -4 0 -9 -33 -10 -73 -1 -39 -2 -109 -3 -155
-1 -45 -5 -80 -9 -77 -4 2 -7 -8 -5 -23 1 -15 3 -27 4 -27 1 0 3 -8 5 -18 2
-9 -1 -15 -6 -11 -12 7 -11 -3 2 -28 7 -13 7 -18 1 -14 -6 4 -11 -2 -11 -11 3
-166 -3 -293 -14 -286 -8 5 -8 2 1 -9 9 -12 13 -61 13 -179 -1 -114 3 -167 12
-178 9 -12 9 -13 0 -7 -14 8 -18 -6 -6 -18 11 -10 12 -37 2 -30 -5 3 -9 0 -9
-5 0 -6 5 -11 10 -11 6 0 10 -5 10 -11 0 -5 -4 -8 -8 -5 -5 3 -9 -1 -9 -9 0
-8 5 -11 11 -8 6 4 5 -1 -3 -10 -9 -11 -10 -17 -2 -17 6 0 11 -5 11 -11 0 -5
-6 -7 -12 -3 -10 6 -10 5 -1 -7 10 -12 10 -18 0 -29 -9 -10 -9 -11 1 -6 7 4
12 2 12 -6 0 -8 -6 -20 -12 -27 -10 -11 -10 -13 0 -7 9 5 12 -9 13 -56 1 -112
4 -153 12 -165 4 -6 3 -14 -3 -18 -6 -4 -8 -11 -5 -16 4 -5 7 -28 9 -52 1 -23
6 -51 10 -62 6 -16 6 -17 -3 -5 -7 9 -11 10 -11 3 0 -6 4 -14 9 -17 5 -3 9
-34 10 -68 0 -34 6 -65 12 -69 8 -5 7 -8 -2 -11 -11 -4 -11 -8 -3 -19 10 -12
22 -127 24 -222 0 -16 4 -26 8 -23 4 2 8 -4 8 -14 0 -10 -4 -16 -8 -14 -4 3
-8 0 -8 -5 0 -6 4 -11 8 -11 4 0 9 -17 10 -37 2 -21 8 -40 14 -44 7 -4 6 -8
-3 -12 -11 -4 -11 -8 -2 -14 6 -4 14 -42 17 -83 6 -87 8 -100 20 -119 7 -11 6
-12 -5 -6 -12 7 -12 6 -1 -7 10 -13 10 -17 0 -21 -10 -4 -10 -6 0 -6 7 -1 12
-14 12 -32 0 -21 4 -28 13 -23 7 5 6 0 -3 -11 -9 -11 -10 -16 -2 -11 8 5 12
-1 13 -21 2 -50 6 -108 9 -113 1 -3 1 -16 0 -29 -1 -14 2 -21 9 -17 7 5 11 -5
11 -26 0 -19 6 -40 13 -47 9 -11 9 -13 0 -7 -7 4 -13 3 -13 -3 0 -5 4 -11 9
-13 7 -3 21 -89 24 -155 1 -12 5 -19 9 -17 5 3 8 -11 6 -32 -1 -23 3 -39 10
-42 7 -2 12 -8 12 -13 0 -6 -4 -7 -10 -4 -5 3 -10 2 -10 -4 0 -5 4 -11 9 -13
5 -1 12 -30 16 -63 3 -33 11 -62 17 -66 7 -4 6 -9 -3 -13 -11 -5 -11 -7 -1
-12 7 -3 12 -24 12 -50 0 -24 5 -44 10 -44 6 0 10 -5 10 -11 0 -5 -6 -7 -12
-3 -10 6 -10 5 -1 -7 6 -8 14 -36 17 -64 10 -75 11 -79 19 -92 5 -8 3 -13 -5
-13 -10 0 -10 -2 -1 -8 7 -4 14 -24 15 -44 2 -20 6 -34 10 -32 4 3 7 -4 6 -13
-1 -44 16 -158 24 -161 5 -2 3 -11 -4 -20 -10 -12 -10 -14 0 -8 11 6 18 -18
13 -46 0 -5 3 -8 9 -8 5 0 10 -5 10 -11 0 -5 -4 -7 -10 -4 -5 3 -10 2 -10 -4
0 -5 4 -11 9 -13 8 -3 22 -98 22 -151 0 -11 5 -15 12 -10 8 4 8 1 -1 -9 -7 -9
-9 -19 -5 -21 5 -3 10 -20 11 -38 1 -18 8 -39 15 -48 10 -12 9 -13 -2 -6 -11
6 -12 5 -5 -6 11 -18 12 -27 20 -119 3 -41 11 -78 16 -81 6 -4 5 -9 -3 -12
-10 -4 -10 -6 -1 -6 7 -1 12 -16 12 -41 0 -25 5 -40 13 -40 9 0 8 -3 -2 -9 -8
-5 -9 -10 -3 -12 10 -4 19 -87 21 -189 1 -26 4 -31 11 -20 6 9 10 10 10 3 0
-6 -5 -15 -10 -18 -6 -4 -8 -11 -4 -16 7 -12 16 -58 17 -86 1 -13 5 -23 9 -23
4 0 8 -5 8 -11 0 -5 -4 -7 -10 -4 -5 3 -10 2 -10 -4 0 -5 4 -11 10 -13 5 -1
12 -50 15 -108 3 -57 12 -111 18 -119 9 -12 9 -13 0 -7 -9 5 -13 1 -13 -13 0
-10 4 -21 10 -23 5 -2 10 -30 11 -63 1 -33 6 -68 11 -79 7 -13 7 -16 -1 -12
-6 4 -11 2 -11 -3 0 -6 5 -11 10 -11 6 0 10 -7 10 -16 0 -9 -5 -12 -12 -8 -10
6 -10 5 -1 -7 6 -8 14 -66 17 -137 3 -73 10 -130 17 -138 10 -12 9 -13 -6 -8
-14 6 -16 4 -8 -12 5 -10 8 -32 7 -48 -2 -16 2 -38 7 -49 8 -14 8 -18 0 -13
-15 10 -14 -7 2 -23 10 -11 9 -12 -3 -6 -12 6 -13 5 -2 -6 16 -17 16 -32 0
-23 -10 6 -10 5 -1 -7 7 -8 11 -51 12 -104 0 -50 0 -198 0 -330 0 -132 0 -271
0 -310 1 -38 -4 -80 -11 -93 -10 -19 -9 -25 2 -32 9 -6 10 -10 3 -10 -7 0 -12
-20 -12 -57 0 -32 -2 -85 -5 -118 -2 -33 -5 -89 -5 -125 -1 -46 -4 -61 -11
-50 -13 21 -13 3 1 -22 8 -14 8 -23 0 -31 -6 -6 -11 -30 -11 -54 0 -28 -4 -43
-12 -43 -10 0 -9 -3 1 -9 11 -7 11 -9 0 -14 -12 -5 -12 -7 0 -15 10 -7 10 -11
1 -14 -10 -3 -22 -110 -22 -197 0 -18 -2 -20 -9 -10 -6 10 -9 7 -9 -11 0 -15
-6 -32 -12 -39 -10 -11 -10 -13 0 -7 8 5 12 0 12 -16 0 -19 -2 -20 -10 -8 -8
12 -10 10 -9 -10 3 -44 -13 -145 -23 -148 -5 -2 -3 -11 4 -20 10 -12 10 -14 1
-8 -9 5 -13 -2 -13 -24 0 -21 -4 -29 -11 -24 -8 5 -10 -3 -7 -25 2 -17 1 -31
-3 -31 -5 0 -6 -7 -3 -15 3 -8 2 -20 -2 -27 -5 -7 -7 -23 -6 -35 2 -11 -2 -24
-7 -28 -6 -3 -11 -17 -11 -31 0 -14 -4 -23 -8 -20 -5 3 -9 -1 -9 -9 0 -8 5
-11 11 -8 6 4 5 0 -1 -8 -13 -16 -21 -47 -22 -89 -1 -20 -3 -22 -12 -10 -8 12
-10 12 -8 -5 3 -39 -1 -56 -11 -50 -6 4 -10 3 -8 -2 4 -17 -14 -133 -21 -129
-4 3 -8 -4 -8 -15 -1 -12 3 -17 10 -13 7 3 5 0 -4 -8 -9 -7 -14 -19 -11 -27 3
-10 0 -11 -9 -5 -11 6 -10 3 1 -11 9 -11 10 -16 3 -11 -9 5 -13 1 -14 -11 -1
-34 -10 -68 -19 -77 -6 -6 -10 -15 -10 -21 0 -5 5 -3 10 5 5 8 10 11 10 5 -1
-18 -27 -45 -36 -37 -4 4 -3 0 4 -10 7 -9 9 -18 4 -20 -6 -1 -12 -23 -16 -47
-3 -24 -11 -51 -18 -59 -11 -13 -11 -14 2 -7 8 4 5 -3 -8 -17 -13 -14 -22 -32
-21 -39 3 -24 -13 -79 -22 -73 -5 3 -9 -8 -9 -25 0 -16 -5 -31 -11 -33 -6 -2
-13 -15 -14 -28 -4 -40 -5 -41 -17 -34 -7 5 -9 2 -5 -9 3 -8 -1 -21 -9 -27 -8
-7 -14 -19 -14 -27 0 -7 -7 -16 -16 -20 -10 -4 -12 -8 -5 -12 7 -5 4 -15 -10
-30 -12 -12 -22 -29 -23 -36 -1 -8 -12 -23 -24 -33 -12 -11 -22 -24 -22 -31 0
-6 -5 -11 -11 -11 -5 0 -8 -4 -5 -8 3 -5 -4 -15 -16 -23 -11 -8 -24 -25 -29
-38 -6 -14 -15 -21 -23 -18 -8 3 -16 -3 -19 -15 -3 -11 -10 -17 -16 -13 -6 3
-11 -1 -11 -9 0 -9 -11 -18 -25 -22 -14 -3 -25 -10 -25 -15 0 -5 -7 -9 -16 -9
-8 0 -12 -5 -9 -10 4 -6 -7 -13 -24 -16 -17 -4 -31 -12 -31 -19 0 -9 -8 -11
-22 -7 -16 4 -19 2 -13 -8 6 -10 4 -12 -8 -7 -9 3 -19 2 -22 -3 -4 -6 -17 -10
-31 -10 -14 0 -22 -4 -19 -10 3 -5 2 -10 -4 -10 -5 0 -12 6 -14 13 -4 9 -6 9
-6 0 -1 -7 -12 -13 -25 -13 -13 0 -26 -5 -28 -11 -3 -8 -61 -12 -183 -13 -201
-3 -278 2 -269 15 3 5 -11 9 -31 9 -20 0 -34 4 -31 8 2 4 -7 9 -21 10 -14 1
-31 6 -38 12 -6 5 -15 7 -19 3 -4 -4 -10 -3 -14 3 -4 5 -26 18 -49 28 -24 11
-43 23 -43 28 0 4 -5 8 -10 8 -6 0 -20 9 -32 20 -12 10 -25 17 -30 14 -5 -3
-7 -2 -6 3 2 4 -1 9 -6 10 -5 0 -13 8 -18 17 -5 9 -17 16 -26 16 -15 0 -15 2
-2 10 13 8 12 10 -3 10 -10 0 -16 4 -13 9 3 5 -3 11 -14 14 -12 3 -20 14 -20
25 0 12 -9 23 -20 27 -11 4 -18 11 -15 16 4 5 2 9 -4 9 -5 0 -17 18 -27 40
-10 21 -21 37 -26 34 -4 -3 -8 2 -8 10 0 9 -6 16 -12 16 -10 0 -10 2 -1 8 9 6
8 11 -6 21 -11 8 -17 22 -15 35 2 11 1 15 -2 8 -8 -17 -29 22 -39 70 -9 46
-26 78 -38 71 -6 -3 -7 -1 -3 5 4 7 4 17 0 24 -4 7 -9 24 -10 37 -3 24 -12 49
-36 94 -5 11 -12 37 -14 59 -3 22 -11 47 -19 55 -8 7 -12 20 -9 28 4 8 1 15
-5 15 -6 0 -11 5 -11 11 0 5 5 7 11 3 6 -3 4 5 -5 19 -9 13 -16 29 -15 33 5
29 -2 84 -11 79 -9 -5 -15 15 -11 38 0 4 -4 7 -10 7 -6 0 -9 9 -6 20 3 11 1
23 -4 26 -5 3 -9 19 -9 35 0 18 -4 28 -10 24 -6 -4 -10 10 -10 34 0 21 -4 41
-10 43 -9 3 -17 41 -20 98 -1 23 -2 23 -10 5 -7 -17 -9 -15 -9 12 -1 17 -5 35
-11 38 -5 3 -10 12 -10 18 0 7 4 6 10 -3 5 -8 10 -10 10 -5 0 6 -4 15 -10 21
-8 8 -22 69 -23 102 0 6 -4 12 -9 12 -4 0 -8 8 -8 18 0 10 -6 24 -12 31 -10
11 -10 13 0 7 6 -4 12 -3 12 3 0 5 -4 11 -9 13 -7 3 -20 82 -21 131 0 12 -4
16 -12 11 -10 -6 -10 -4 0 8 9 11 10 18 2 23 -5 3 -10 22 -10 41 0 19 -4 34
-10 34 -5 0 -10 18 -10 40 0 22 -4 40 -10 40 -5 0 -9 12 -9 28 1 15 -2 59 -6
97 -4 39 -7 76 -8 83 0 6 -5 12 -11 12 -6 0 -4 5 4 10 10 6 11 10 3 10 -9 0
-13 17 -13 50 0 30 -4 50 -11 50 -8 0 -7 6 2 17 10 11 10 14 2 9 -8 -4 -13 -1
-13 9 0 10 5 13 13 9 9 -6 9 -5 0 7 -11 14 -25 169 -23 257 1 24 -4 50 -10 57
-8 9 -8 15 0 20 5 3 10 11 10 16 0 6 -4 8 -8 5 -4 -2 -8 15 -8 39 -1 29 3 42
10 38 6 -4 5 1 -3 10 -11 14 -11 20 0 34 10 11 10 14 2 9 -10 -5 -13 7 -13 49
0 31 -4 54 -9 51 -5 -4 -8 2 -6 11 2 10 4 18 5 18 7 0 6 76 -1 81 -14 9 -11
46 4 38 10 -6 10 -4 0 7 -7 7 -13 20 -13 28 0 14 1 14 10 1 6 -9 10 -10 10 -3
0 6 -4 14 -8 17 -13 8 -17 336 -11 949 1 172 5 247 13 247 8 0 8 3 0 8 -11 8
-16 115 -5 107 4 -2 8 2 8 10 0 8 -4 12 -9 9 -12 -8 -10 10 4 24 9 9 9 12 -1
12 -7 0 -9 5 -4 13 12 19 12 38 0 30 -7 -4 -8 0 -2 13 10 24 13 284 3 290 -5
3 -4 13 1 22 11 21 11 659 0 641 -6 -10 -8 -7 -6 8 0 12 4 20 7 18 3 -2 6 16
6 40 0 24 -4 42 -7 39 -4 -2 -6 4 -4 13 2 10 4 18 5 18 1 0 3 10 4 22 2 13 -2
19 -7 16 -7 -4 -8 1 -3 13 14 34 16 63 6 69 -5 3 -10 11 -10 16 0 6 5 7 10 4
6 -3 10 -1 10 4 0 6 -4 11 -9 11 -4 0 -9 25 -10 56 -1 42 2 53 12 48 9 -6 9
-5 0 7 -8 10 -14 91 -18 249 -4 158 -10 239 -18 249 -9 12 -9 13 1 7 7 -4 12
-1 12 8 0 9 -6 16 -12 16 -9 0 -8 4 2 10 14 9 7 14 -15 11 -5 -1 -2 5 8 13 10
8 14 17 9 20 -6 3 -19 -12 -30 -34 -10 -22 -23 -36 -27 -32 -5 4 -5 -1 -2 -10
4 -12 1 -18 -8 -18 -8 0 -17 -11 -21 -25 -3 -14 -10 -25 -16 -25 -5 0 -6 -4
-3 -10 3 -5 -1 -10 -10 -10 -9 0 -18 -12 -21 -30 -4 -16 -10 -27 -15 -24 -5 3
-9 -2 -9 -10 0 -9 -4 -16 -10 -16 -5 0 -12 -11 -16 -25 -3 -14 -11 -22 -17
-18 -6 4 -8 0 -4 -10 4 -11 1 -17 -8 -17 -8 0 -15 -7 -15 -15 0 -8 -5 -15 -12
-15 -6 0 -9 -3 -5 -6 9 -9 -16 -33 -28 -26 -5 3 -3 -3 5 -14 8 -10 11 -16 6
-12 -9 8 -46 -33 -46 -50 0 -5 -7 -12 -15 -16 -8 -3 -15 -9 -14 -13 4 -21 -3
-32 -21 -38 -11 -3 -20 -14 -20 -23 0 -22 -35 -74 -43 -65 -4 3 -7 2 -8 -3 -2
-31 -10 -49 -24 -56 -8 -5 -13 -14 -9 -19 3 -5 0 -8 -8 -7 -8 2 -12 -4 -10
-14 2 -12 -4 -18 -15 -18 -14 0 -15 -2 -5 -9 11 -7 10 -9 -3 -15 -9 -3 -13
-10 -10 -16 3 -5 -1 -10 -10 -10 -9 0 -13 -4 -10 -10 3 -5 -5 -19 -19 -31 -13
-12 -27 -33 -31 -47 -3 -14 -15 -33 -25 -42 -10 -9 -22 -28 -25 -43 -4 -14
-10 -25 -14 -24 -3 1 -6 -1 -6 -4 0 -3 -8 -13 -17 -23 -10 -10 -18 -27 -18
-38 0 -12 -3 -19 -6 -15 -10 9 -32 -17 -40 -47 -3 -14 -10 -23 -15 -20 -8 5
-14 -18 -10 -39 1 -5 -3 -6 -8 -3 -5 4 -12 -3 -16 -14 -3 -11 -11 -20 -16 -20
-6 0 -8 -4 -4 -9 3 -6 -2 -14 -10 -19 -14 -7 -21 -24 -24 -55 -1 -5 -5 -5 -11
-2 -5 3 -10 1 -10 -5 0 -6 -5 -8 -12 -4 -8 5 -7 0 2 -11 8 -10 10 -16 3 -12
-7 5 -14 -4 -18 -22 -4 -17 -15 -33 -26 -36 -10 -4 -19 -15 -19 -26 0 -10 -9
-28 -19 -38 -11 -11 -17 -22 -13 -25 3 -3 1 -6 -5 -6 -6 0 -14 -11 -17 -25 -4
-14 -11 -25 -16 -25 -6 0 -10 -7 -10 -16 0 -8 -4 -12 -10 -9 -5 3 -10 -2 -10
-13 0 -21 -33 -64 -44 -57 -3 3 -4 2 -2 -1 7 -9 -15 -64 -25 -64 -5 0 -9 -10
-9 -22 0 -19 -2 -20 -10 -8 -8 13 -10 13 -11 -2 -3 -38 -5 -43 -18 -40 -7 1
-10 -2 -6 -8 3 -5 -1 -13 -9 -16 -9 -3 -16 -15 -16 -25 0 -11 -7 -22 -16 -26
-13 -5 -13 -7 -2 -14 10 -7 10 -9 1 -9 -7 0 -13 -7 -13 -16 0 -8 -4 -12 -10
-9 -5 3 -10 0 -10 -7 -1 -19 -39 -95 -40 -78 0 13 -2 13 -9 0 -6 -8 -7 -18 -5
-22 3 -5 -2 -11 -10 -14 -9 -3 -16 -17 -16 -30 0 -15 -6 -24 -16 -24 -8 0 -13
-4 -10 -9 3 -5 -1 -14 -10 -21 -8 -7 -13 -19 -10 -27 3 -7 -1 -13 -8 -13 -8 0
-17 -11 -20 -25 -4 -14 -12 -25 -19 -25 -8 0 -7 -4 3 -10 13 -8 13 -10 -2 -10
-10 0 -22 -14 -29 -34 -7 -20 -17 -32 -23 -29 -6 4 -4 -2 4 -12 9 -11 10 -16
3 -11 -8 4 -13 2 -13 -4 0 -6 -5 -8 -12 -4 -6 4 -8 3 -4 -4 3 -6 2 -13 -4 -17
-6 -4 -8 -11 -5 -16 4 -5 -1 -12 -9 -15 -9 -3 -16 -12 -16 -20 0 -8 -5 -14
-11 -14 -5 0 -7 -4 -4 -10 3 -5 1 -10 -5 -10 -6 0 -10 -8 -8 -18 2 -10 -2 -16
-10 -14 -8 1 -11 -2 -7 -8 3 -5 -1 -13 -10 -16 -13 -5 -13 -9 -3 -22 7 -9 9
-13 3 -11 -5 3 -18 -2 -27 -12 -12 -12 -13 -19 -5 -23 9 -3 9 -5 0 -5 -7 -1
-13 -8 -13 -17 0 -8 -4 -13 -9 -10 -5 3 -11 -8 -15 -25 -3 -18 -10 -28 -17
-24 -6 4 -9 0 -7 -11 2 -11 -2 -18 -9 -17 -6 1 -14 -15 -18 -37 -4 -22 -11
-38 -16 -34 -5 3 -9 -2 -9 -10 0 -9 -4 -16 -10 -16 -5 0 -10 -7 -10 -15 0 -8
-4 -15 -9 -15 -6 0 -8 -9 -6 -20 2 -11 1 -19 -3 -16 -9 5 -26 -15 -30 -34 -2
-8 -10 -20 -18 -26 -12 -10 -12 -13 -2 -17 10 -4 10 -6 1 -6 -7 -1 -13 -9 -13
-18 0 -15 -2 -16 -10 -3 -8 12 -10 10 -11 -10 -1 -14 -1 -29 0 -33 1 -4 -6
-10 -14 -13 -8 -4 -15 -18 -15 -33 0 -19 -3 -22 -9 -12 -7 11 -11 5 -16 -22
-4 -20 -11 -34 -16 -31 -5 3 -9 -4 -9 -14 0 -11 -7 -25 -15 -32 -8 -7 -15 -19
-15 -27 0 -19 -25 -44 -35 -35 -5 4 -5 2 -1 -5 7 -13 -13 -63 -26 -63 -4 0 -8
-7 -8 -15 0 -8 -4 -15 -9 -15 -5 0 -12 -17 -16 -37 -5 -27 -9 -33 -16 -22 -7
11 -9 10 -9 -6 0 -11 -7 -29 -15 -39 -8 -10 -12 -23 -9 -28 3 -4 -2 -11 -10
-14 -9 -3 -16 -15 -16 -25 0 -10 -4 -19 -9 -19 -5 0 -12 -13 -16 -30 -4 -16
-11 -30 -16 -30 -5 0 -9 -9 -9 -21 0 -11 -4 -18 -9 -15 -5 3 -11 -7 -14 -22
-3 -15 -15 -37 -27 -50 -12 -12 -22 -31 -23 -42 -1 -11 -6 -20 -11 -20 -5 0
-7 -3 -3 -6 3 -4 -1 -13 -9 -21 -8 -9 -13 -22 -10 -30 3 -8 1 -11 -4 -8 -6 3
-11 1 -11 -4 -4 -32 -6 -36 -15 -34 -5 1 -11 -8 -11 -19 -1 -12 -6 -24 -11
-27 -11 -7 -27 -52 -24 -64 1 -5 -2 -6 -8 -2 -5 3 -10 -1 -10 -10 0 -9 -7 -23
-15 -31 -8 -9 -15 -26 -15 -40 0 -13 -4 -24 -10 -24 -5 0 -10 -8 -10 -17 0
-15 -2 -16 -10 -3 -8 12 -10 9 -10 -12 0 -16 -4 -28 -9 -28 -5 0 -7 -9 -4 -19
3 -13 -2 -21 -15 -25 -13 -5 -22 -19 -26 -46 -3 -23 -15 -45 -27 -53 -11 -8
-21 -27 -23 -43 -2 -15 -8 -30 -15 -32 -6 -2 -11 -16 -11 -30 0 -19 -3 -23 -9
-13 -6 10 -11 1 -16 -28 -4 -23 -9 -40 -13 -37 -6 7 -27 -31 -36 -67 -3 -15
-11 -27 -16 -27 -6 0 -10 -11 -10 -24 0 -13 -7 -29 -15 -36 -8 -7 -15 -21 -15
-32 0 -13 -4 -17 -12 -12 -8 5 -7 0 2 -11 9 -11 10 -16 3 -11 -8 4 -13 2 -13
-4 0 -6 -4 -9 -8 -6 -4 2 -9 -7 -10 -22 -1 -15 -10 -33 -19 -39 -9 -7 -11 -13
-5 -13 7 0 12 -5 12 -11 0 -5 -4 -7 -10 -4 -5 3 -10 -1 -10 -9 0 -9 -4 -16 -9
-16 -5 0 -12 -18 -16 -41 -4 -22 -10 -38 -13 -34 -7 7 -47 -76 -44 -92 2 -7
-2 -13 -8 -13 -5 0 -10 -9 -10 -20 0 -11 -4 -20 -10 -20 -5 0 -10 -5 -10 -11
0 -14 -32 -82 -41 -89 -5 -3 -11 -21 -14 -40 -3 -19 -10 -36 -16 -38 -5 -2 -9
-13 -9 -23 0 -11 -4 -17 -10 -14 -9 5 -15 -23 -11 -48 1 -4 -6 -10 -14 -13 -8
-4 -15 -17 -15 -31 0 -13 -4 -22 -9 -19 -5 3 -11 -12 -15 -34 -3 -22 -11 -40
-16 -40 -6 0 -10 -9 -10 -21 0 -11 -4 -18 -9 -15 -5 3 -11 -12 -15 -33 -3 -22
-13 -46 -21 -54 -8 -8 -11 -17 -8 -21 4 -3 2 -6 -4 -6 -6 0 -14 -16 -18 -36
-3 -20 -13 -43 -20 -51 -8 -7 -11 -21 -8 -30 4 -11 3 -14 -5 -9 -7 4 -12 1
-13 -6 -2 -34 -11 -63 -22 -70 -6 -4 -7 -8 -2 -8 6 0 2 -5 -7 -11 -10 -5 -18
-21 -18 -35 0 -14 -4 -23 -9 -20 -5 3 -11 -12 -15 -35 -4 -28 -10 -38 -19 -33
-7 5 -5 -1 3 -11 9 -11 10 -16 3 -11 -7 4 -14 2 -14 -3 -2 -16 -4 -23 -17 -54
-7 -16 -12 -38 -12 -49 0 -12 -3 -18 -7 -15 -8 9 -32 -37 -38 -75 -6 -35 -26
-68 -40 -68 -5 0 -3 -5 5 -10 10 -6 11 -10 3 -10 -7 0 -16 -18 -19 -40 -4 -22
-10 -37 -15 -34 -5 3 -9 -6 -9 -20 0 -13 -4 -26 -9 -28 -9 -3 -22 -44 -24 -80
-1 -9 -3 -15 -5 -13 -12 11 -32 -29 -38 -75 -4 -34 -10 -47 -15 -38 -6 9 -9 3
-10 -17 -1 -16 -1 -34 0 -38 1 -5 -3 -6 -9 -2 -5 3 -11 1 -11 -4 -1 -6 -3 -15
-4 -21 -1 -5 -3 -19 -4 -31 -1 -13 -5 -18 -13 -13 -8 5 -8 2 1 -10 12 -14 12
-17 1 -14 -8 2 -14 -4 -15 -12 0 -8 -6 -25 -13 -37 -7 -12 -12 -26 -11 -30 4
-22 -2 -34 -13 -27 -10 6 -10 4 0 -8 11 -14 10 -18 -7 -30 -14 -10 -22 -29
-25 -59 -3 -25 -9 -43 -15 -41 -7 1 -10 -8 -7 -22 3 -15 -1 -27 -9 -30 -8 -3
-17 -25 -20 -50 -4 -25 -11 -46 -16 -46 -5 0 -9 -9 -9 -21 0 -13 -4 -18 -12
-13 -8 5 -7 0 2 -11 9 -11 10 -16 3 -11 -8 4 -13 2 -14 -6 -2 -34 -11 -63 -22
-70 -9 -6 -8 -8 3 -8 12 0 13 -2 1 -9 -7 -5 -10 -14 -7 -20 4 -6 0 -11 -8 -11
-10 0 -16 -10 -17 -25 -1 -14 -3 -29 -4 -35 -1 -5 -3 -19 -4 -31 0 -11 -5 -17
-11 -14 -9 5 -16 -32 -11 -58 1 -5 -3 -6 -8 -3 -5 3 -12 -14 -15 -39 -4 -25
-10 -45 -14 -45 -4 0 -9 -11 -10 -23 -1 -13 -8 -37 -17 -53 -8 -16 -15 -39
-15 -52 0 -16 -4 -21 -12 -16 -8 5 -7 0 2 -11 9 -11 10 -16 3 -11 -9 5 -13 0
-13 -13 0 -12 -6 -21 -12 -21 -10 0 -9 -3 1 -9 8 -5 9 -10 3 -12 -6 -2 -14
-20 -17 -39 -3 -19 -10 -39 -16 -45 -5 -5 -9 -25 -10 -45 0 -28 -2 -31 -9 -15
-8 18 -9 18 -10 -5 -2 -52 -12 -105 -21 -108 -5 -2 -9 -12 -9 -22 0 -10 -4
-21 -9 -24 -5 -3 -12 -31 -16 -61 -4 -36 -10 -53 -17 -49 -7 5 -9 -1 -5 -15 3
-14 0 -24 -9 -28 -8 -3 -14 -9 -14 -15 0 -5 4 -7 8 -4 5 3 9 -1 9 -9 0 -8 -5
-13 -11 -12 -5 1 -11 -15 -12 -36 -1 -21 -7 -44 -13 -50 -6 -6 -11 -19 -11
-29 0 -10 -6 -18 -12 -18 -9 0 -8 -4 2 -10 13 -9 13 -10 0 -10 -12 0 -13 -2
-1 -9 10 -7 11 -9 0 -13 -7 -2 -14 -24 -16 -49 -2 -24 -8 -45 -13 -47 -6 -2
-10 -15 -10 -28 0 -18 -4 -23 -12 -18 -8 5 -7 0 2 -11 8 -10 10 -16 4 -12 -8
5 -14 -9 -19 -41 -4 -26 -12 -50 -18 -54 -9 -6 -9 -8 1 -8 6 0 12 -5 12 -11 0
-5 -4 -7 -10 -4 -6 3 -10 -4 -10 -17 0 -13 -4 -28 -10 -34 -5 -5 -13 -38 -16
-73 -4 -34 -12 -65 -19 -67 -6 -3 -11 -15 -10 -27 1 -12 -1 -24 -6 -27 -4 -3
-10 -30 -14 -60 -4 -30 -11 -59 -16 -65 -5 -5 -9 -19 -9 -32 0 -13 -6 -23 -12
-23 -10 0 -9 -3 1 -9 7 -5 9 -10 3 -12 -5 -2 -12 -22 -15 -44 -6 -41 -14 -80
-17 -80 -1 0 -4 -16 -7 -35 -2 -19 -9 -36 -14 -38 -5 -2 -9 -8 -9 -13 0 -6 6
-7 13 -3 9 6 9 4 -1 -8 -7 -9 -15 -39 -19 -67 -3 -28 -10 -48 -14 -45 -5 3 -9
-13 -9 -36 0 -30 -3 -39 -12 -34 -8 5 -7 0 2 -11 9 -11 10 -16 3 -11 -9 5 -13
-2 -14 -23 -1 -17 -3 -35 -4 -41 -1 -5 -3 -24 -4 -41 0 -16 -4 -28 -8 -26 -5
3 -9 -9 -10 -25 -1 -17 -8 -37 -15 -46 -11 -13 -11 -14 2 -7 13 8 13 7 1 -8
-11 -14 -11 -17 0 -17 11 0 11 -2 1 -9 -13 -8 -19 -35 -21 -99 0 -18 -5 -31
-9 -28 -4 2 -9 -12 -10 -32 -2 -20 -8 -43 -15 -51 -9 -12 -9 -13 1 -7 6 4 12
3 12 -3 0 -5 -4 -11 -10 -13 -9 -3 -18 -62 -19 -131 -1 -20 -5 -26 -13 -21 -8
5 -7 0 2 -11 9 -11 10 -16 3 -11 -9 5 -13 0 -13 -13 0 -32 -1 -35 -13 -50 -10
-12 -9 -13 3 -6 12 7 13 6 4 -6 -7 -8 -15 -43 -19 -79 -4 -36 -12 -68 -19 -72
-8 -6 -7 -8 2 -8 6 0 12 -8 12 -17 0 -16 -2 -16 -11 -3 -8 12 -10 10 -8 -10 3
-48 -1 -71 -11 -65 -6 4 -10 -13 -11 -42 -1 -26 -3 -64 -5 -83 -2 -19 -4 -47
-5 -62 0 -16 -5 -28 -10 -28 -5 0 -9 -22 -9 -49 0 -27 -4 -51 -9 -53 -8 -3
-20 -111 -21 -188 0 -26 -3 -31 -10 -20 -8 12 -10 10 -10 -8 0 -16 4 -21 13
-16 9 6 9 5 0 -7 -7 -8 -13 -36 -15 -61 -2 -25 -6 -44 -11 -41 -4 2 -7 -15 -8
-39 -2 -95 -9 -162 -20 -174 -6 -7 -7 -19 -3 -26 12 -19 14 -39 2 -32 -5 3 -9
-2 -8 -12 5 -41 0 -95 -8 -90 -5 3 -9 -1 -9 -9 0 -8 5 -12 10 -8 5 3 4 -4 -2
-14 -10 -20 -18 -101 -20 -208 -1 -36 -4 -46 -11 -35 -5 8 -10 10 -10 5 0 -6
5 -16 12 -23 9 -9 9 -12 0 -12 -7 0 -12 -5 -12 -11 0 -5 6 -7 13 -3 9 6 9 4
-1 -8 -10 -13 -10 -17 0 -21 10 -4 10 -6 1 -6 -7 -1 -13 -14 -13 -30 0 -16 -6
-32 -12 -34 -10 -4 -10 -6 0 -6 6 -1 12 -8 12 -17 0 -8 -4 -13 -8 -10 -5 3 -9
-1 -9 -9 0 -8 4 -12 9 -9 11 7 10 -20 -1 -31 -9 -9 -18 -145 -20 -278 -1 -21
-5 -36 -10 -33 -11 7 -9 -13 2 -32 5 -7 4 -12 -2 -12 -6 0 -11 -5 -11 -11 0
-5 4 -8 8 -5 10 6 12 -25 2 -39 -4 -5 -8 -35 -9 -65 -2 -30 -8 -58 -14 -62 -7
-5 -8 -8 -2 -8 6 0 12 -11 13 -26 1 -14 -2 -22 -8 -19 -5 3 -9 -35 -10 -97 0
-57 -2 -150 -5 -208 -2 -58 -4 -142 -4 -188 -1 -64 -4 -82 -13 -76 -10 6 -10
4 -1 -7 15 -15 18 -33 5 -25 -5 3 -9 -1 -9 -9 0 -8 4 -12 9 -9 4 3 8 -2 8 -11
0 -9 -4 -14 -8 -11 -4 2 -8 -13 -8 -34 0 -21 3 -37 8 -34 4 3 8 -2 8 -11 0 -9
-4 -14 -9 -11 -11 7 -9 -13 2 -31 5 -8 3 -13 -5 -13 -9 0 -9 -3 2 -10 10 -6
11 -10 3 -10 -7 0 -13 -7 -13 -16 0 -9 5 -12 13 -8 10 6 10 4 0 -7 -17 -17
-17 -56 0 -62 10 -4 10 -6 0 -6 -18 -1 -18 -142 0 -160 9 -11 9 -13 -1 -7 -9
6 -12 -12 -12 -73 0 -58 4 -81 13 -81 8 0 7 -4 -3 -10 -13 -9 -13 -11 0 -20
10 -6 11 -10 3 -10 -7 0 -13 -9 -13 -20 0 -11 4 -20 8 -20 5 0 9 -7 9 -15 0
-8 -4 -12 -9 -9 -4 3 -8 0 -8 -5 0 -6 6 -11 13 -11 8 0 7 -4 -3 -10 -13 -9
-13 -10 0 -10 13 0 13 -1 0 -10 -12 -8 -12 -10 -1 -10 11 0 11 -3 0 -17 -10
-11 -10 -14 -1 -9 6 4 12 2 12 -3 0 -6 -6 -11 -12 -11 -9 0 -8 -4 2 -10 13 -9
13 -10 0 -10 -13 0 -13 -1 0 -10 13 -9 13 -11 0 -20 -10 -6 -11 -10 -2 -10 6
0 12 -7 12 -16 0 -9 -5 -12 -12 -8 -10 6 -10 5 -1 -7 8 -9 14 -92 18 -244 4
-126 10 -234 13 -240 3 -5 8 -28 10 -50 3 -41 9 -80 12 -80 1 0 3 -8 5 -18 2
-9 0 -15 -3 -13 -4 2 -8 -7 -9 -21 -1 -19 1 -22 8 -12 6 10 9 5 8 -16 -3 -62
13 -230 22 -233 5 -2 9 -8 9 -13 0 -6 -4 -8 -8 -5 -5 3 -9 -1 -9 -9 0 -8 4
-12 9 -9 4 3 8 -11 8 -31 0 -20 4 -34 8 -31 5 3 9 -1 9 -9 0 -8 -4 -12 -9 -9
-4 3 -8 0 -8 -5 0 -6 4 -11 10 -11 5 0 9 -3 8 -7 -4 -17 14 -83 22 -83 6 0 10
-5 10 -12 0 -19 53 -128 62 -128 4 0 8 -9 8 -20 0 -11 7 -23 15 -26 8 -4 15
-14 15 -24 0 -10 7 -21 16 -24 8 -3 12 -10 9 -16 -3 -5 -1 -10 5 -10 6 0 9 -4
5 -9 -3 -5 3 -12 14 -16 10 -3 22 -17 25 -31 4 -14 11 -22 16 -19 6 3 10 1 10
-6 0 -6 16 -26 35 -45 19 -18 35 -37 35 -43 0 -6 7 -11 16 -11 8 0 13 -4 10
-8 -3 -5 6 -19 19 -30 14 -12 25 -20 25 -18 0 2 18 -14 41 -36 22 -22 55 -46
72 -53 18 -7 30 -17 28 -22 -2 -4 17 -19 42 -32 25 -14 44 -28 42 -32 -3 -3 8
-9 23 -12 15 -3 37 -15 49 -27 13 -11 36 -23 53 -26 16 -4 30 -10 30 -15 0 -5
7 -9 15 -9 8 0 15 -4 15 -10 0 -5 8 -10 18 -10 9 0 34 -9 54 -19 19 -11 39
-17 42 -14 3 4 6 1 6 -4 0 -6 18 -14 40 -18 22 -4 40 -11 40 -16 0 -5 11 -9
25 -9 14 0 25 -4 25 -9 0 -5 29 -12 65 -16 36 -3 65 -11 65 -16 0 -5 12 -9 26
-9 17 0 23 -4 18 -12 -5 -8 0 -7 11 2 10 8 16 10 12 4 -4 -8 16 -14 66 -19 39
-3 78 -12 86 -18 12 -9 13 -9 7 1 -4 6 -3 12 3 12 5 0 11 -4 13 -9 2 -5 23
-11 48 -12 25 -2 48 -8 53 -14 5 -7 10 -5 16 4 5 8 10 9 12 2 4 -11 134 -19
332 -20 83 -1 107 -4 101 -13 -6 -10 -4 -11 7 0 16 15 33 16 24 1 -4 -6 3 -5
14 3 18 11 23 11 31 -2 6 -10 10 -11 10 -2 0 6 5 12 11 12 5 0 7 -6 3 -12 -5
-8 0 -7 11 2 11 9 16 10 11 3 -9 -16 6 -17 22 -1 9 9 12 9 12 0 0 -9 1852 -12
8240 -12 4674 0 8240 4 8240 9 0 8 95 26 114 22 5 -1 12 3 15 8 4 6 21 11 38
13 17 1 30 5 27 9 -2 4 16 11 41 14 25 4 45 11 45 16 0 5 12 9 26 9 14 0 23 4
19 10 -3 6 0 10 7 11 7 0 22 3 33 5 11 2 28 5 37 6 9 1 14 6 12 10 -3 4 2 8
11 8 9 0 14 4 11 9 -3 5 10 12 29 15 19 4 35 11 35 16 0 6 12 10 28 10 19 0
23 3 14 9 -10 6 -3 10 22 15 20 4 36 11 36 16 0 6 7 10 17 10 9 0 13 3 10 6
-4 4 14 17 38 29 25 12 43 24 39 27 -3 4 5 9 18 14 13 4 30 14 38 23 8 9 27
22 43 29 15 6 27 18 27 26 0 7 11 17 25 20 14 4 23 11 20 16 -3 6 -1 10 6 10
6 0 26 16 45 35 18 19 37 35 43 35 6 0 11 5 11 11 0 5 23 32 50 58 28 26 50
53 50 60 0 7 5 9 10 6 6 -3 10 1 10 10 0 9 5 13 10 10 6 -3 10 0 10 8 0 8 11
27 25 43 14 16 25 32 25 36 0 15 35 88 42 88 4 0 10 15 14 34 3 19 13 37 21
40 9 4 13 13 9 22 -3 8 -2 13 3 10 10 -7 21 17 21 45 0 10 5 19 10 19 6 0 10
11 10 25 0 14 4 25 9 25 5 0 13 25 17 56 4 37 9 51 15 43 7 -11 9 -9 9 6 0 12
4 25 10 31 8 8 22 69 23 101 0 7 4 10 9 7 4 -3 8 8 8 25 0 16 4 32 9 35 9 6
26 164 22 201 -1 14 1 16 7 7 6 -9 10 5 11 40 4 72 6 92 13 103 3 6 9 69 13
140 4 72 10 135 13 140 10 15 11 36 3 30 -4 -2 -8 2 -8 10 0 8 4 12 9 9 4 -3
8 -1 8 5 0 5 -6 12 -12 14 -10 4 -10 6 0 6 7 1 12 16 12 42 0 29 3 38 13 33 8
-5 8 -2 -2 9 -11 14 -11 20 0 34 10 11 10 14 2 9 -9 -5 -13 -1 -13 13 0 11 5
23 10 26 6 4 10 23 9 43 -4 111 14 438 24 451 9 12 9 13 0 7 -9 -5 -13 0 -13
13 0 12 6 21 13 21 7 0 8 3 2 8 -14 10 -17 32 -9 51 9 21 12 181 3 175 -4 -2
-6 4 -4 13 2 10 4 18 5 18 1 0 4 13 6 28 4 22 2 27 -8 21 -10 -6 -10 -4 -2 7
16 22 17 78 2 96 -7 9 -8 14 -2 10 14 -8 17 128 4 153 -5 10 -6 21 -2 24 9 10
10 186 0 180 -4 -3 -8 -1 -8 5 0 5 6 12 13 14 10 4 10 6 0 6 -7 1 -13 8 -13
16 0 8 6 15 13 15 8 0 9 3 1 8 -6 4 -12 30 -12 57 -7 280 -15 411 -25 417 -9
6 -8 8 2 8 9 0 10 4 3 13 -5 6 -10 43 -11 82 -1 42 -7 72 -14 77 -9 6 -8 8 3
8 13 0 13 1 0 10 -13 9 -13 10 0 10 10 0 11 3 4 8 -10 6 -27 156 -25 221 1 13
-4 30 -10 37 -9 10 -9 14 0 14 6 0 11 5 11 11 0 5 -6 7 -12 3 -8 -5 -7 0 2 11
9 11 10 16 3 11 -13 -7 -17 7 -13 53 1 13 -2 21 -7 18 -6 -4 -10 0 -10 8 0 8
3 12 7 10 4 -2 7 2 7 10 0 8 -4 12 -9 9 -4 -3 -9 14 -10 38 -1 24 -3 52 -4 63
-1 11 -2 35 -3 53 -1 24 -5 31 -13 26 -8 -5 -7 0 2 11 9 11 10 16 3 11 -7 -4
-13 -2 -13 3 0 6 6 11 13 11 7 0 6 4 -4 10 -11 6 -15 18 -11 36 2 14 0 29 -5
33 -10 6 -25 109 -24 166 0 23 -2 26 -9 15 -7 -11 -10 -4 -10 27 0 23 -5 45
-11 49 -8 4 -7 9 2 15 9 6 10 9 2 9 -6 0 -12 8 -12 17 -1 10 -3 32 -5 48 -3
17 -5 40 -5 53 -1 13 -5 21 -10 18 -5 -3 -9 0 -8 7 1 45 -4 77 -13 72 -6 -4
-10 6 -11 22 -1 51 -9 108 -18 128 -15 32 -25 59 -26 70 -15 94 -19 121 -17
128 1 5 -2 6 -8 2 -8 -5 -13 14 -9 41 0 4 -4 10 -9 13 -5 3 -12 25 -15 49 -2
24 -10 49 -16 55 -6 6 -11 26 -11 44 0 18 -4 33 -9 33 -6 0 -10 8 -10 18 -2
48 -14 91 -25 85 -6 -4 -4 2 4 12 9 11 10 16 3 11 -9 -5 -13 0 -13 13 0 12 -6
21 -12 21 -10 0 -9 3 1 9 9 6 10 10 2 12 -6 2 -14 29 -18 59 -5 40 -8 49 -14
35 -6 -16 -8 -13 -8 13 -1 18 -4 31 -8 29 -5 -3 -9 8 -10 25 -1 16 -9 43 -18
60 -8 17 -15 42 -15 55 0 12 -4 23 -10 23 -5 0 -9 3 -8 7 2 13 -14 88 -21 93
-3 3 -12 16 -19 29 -11 19 -11 22 0 15 8 -5 6 3 -5 19 -9 15 -15 27 -11 27 3
0 -1 12 -11 26 -9 14 -14 32 -11 40 3 8 -1 17 -8 20 -8 3 -17 27 -21 55 -4 27
-11 46 -16 43 -8 -4 -11 9 -8 32 0 4 -4 10 -10 13 -5 4 -13 22 -16 41 -3 19
-10 36 -16 38 -5 2 -9 12 -9 23 0 11 -7 30 -15 43 -9 13 -15 28 -14 32 4 21
-2 35 -11 29 -6 -4 -10 6 -10 24 0 16 -5 31 -10 33 -10 3 -21 36 -23 70 -1 9
-4 15 -7 13 -3 -1 -10 3 -17 10 -10 11 -10 15 0 18 9 4 9 6 0 6 -7 1 -15 18
-19 39 -4 20 -16 45 -27 54 -14 13 -16 18 -6 18 10 0 11 2 2 8 -6 4 -15 20
-18 35 -4 15 -11 27 -16 27 -5 0 -9 12 -9 26 0 15 -4 23 -11 19 -6 -4 -9 -1
-8 6 4 29 -14 80 -32 89 -11 6 -20 27 -25 55 -3 25 -10 45 -15 45 -5 0 -9 6
-9 14 0 8 -5 16 -10 18 -6 2 -12 13 -13 26 0 12 -5 22 -10 22 -4 0 -5 5 -2 10
3 6 1 10 -4 10 -6 0 -11 12 -11 28 0 20 -3 23 -9 13 -7 -11 -11 -5 -16 22 -4
20 -10 37 -14 37 -9 0 -29 48 -37 88 -5 24 -9 30 -15 20 -6 -9 -9 -6 -9 10 0
13 -4 20 -10 17 -6 -4 -10 -3 -9 2 4 22 -2 43 -17 57 -12 12 -12 16 -2 16 7 1
2 7 -12 15 -15 9 -19 14 -10 15 10 0 11 3 4 8 -6 4 -15 18 -19 32 -4 14 -15
34 -25 45 -10 11 -22 32 -25 47 -4 16 -12 25 -18 21 -5 -3 -7 -1 -4 5 9 14 -3
43 -14 36 -5 -3 -9 6 -9 20 0 14 -5 26 -12 26 -6 0 -9 3 -5 6 3 4 -1 13 -9 21
-8 8 -11 19 -8 25 4 7 2 8 -4 4 -7 -4 -13 -2 -13 3 -1 6 -3 16 -4 21 -1 6 -3
15 -4 21 0 5 -6 7 -11 4 -6 -4 -10 -3 -9 2 4 22 -2 43 -11 38 -5 -3 -10 3 -10
14 0 11 -6 26 -13 33 -15 14 -17 19 -18 46 0 14 -2 14 -9 -3 -8 -17 -9 -18
-11 -2 -1 9 -3 22 -4 27 -1 6 -3 17 -4 26 0 8 -5 12 -11 9 -6 -4 -10 6 -10 22
0 20 -3 24 -9 14 -6 -10 -11 -5 -16 20 -4 18 -17 41 -29 52 -11 10 -14 15 -6
11 9 -4 6 3 -6 17 -12 13 -19 30 -16 38 3 8 0 11 -7 7 -6 -4 -11 -1 -11 8 0 8
-5 16 -10 18 -6 2 -12 14 -15 28 -3 13 -12 28 -20 33 -8 4 -13 12 -10 17 3 5
-3 14 -14 20 -11 6 -23 25 -27 45 -3 19 -10 32 -15 29 -5 -3 -9 4 -9 16 0 12
-4 18 -10 15 -5 -3 -11 -1 -11 4 -1 6 -2 17 -3 24 -1 6 -7 11 -14 10 -7 -2
-12 2 -12 7 0 6 5 10 10 10 6 0 5 6 -2 14 -7 8 -16 12 -20 10 -4 -3 -10 11
-14 30 -3 20 -11 34 -18 33 -6 -1 -10 4 -9 11 2 6 -1 12 -6 12 -5 0 -12 12
-16 27 -3 15 -17 38 -31 51 -13 14 -24 33 -24 44 0 11 -4 16 -10 13 -6 -3 -10
4 -10 17 0 18 -2 20 -10 8 -8 -13 -10 -13 -11 3 -1 9 -3 22 -4 27 -1 6 -3 18
-4 28 -1 11 -4 13 -9 6 -5 -9 -10 -9 -18 0 -5 6 -10 13 -11 16 -2 24 -16 49
-25 44 -6 -4 -8 -2 -4 4 3 6 0 17 -8 24 -7 8 -17 24 -20 36 -4 12 -12 22 -17
22 -5 0 -9 7 -9 15 0 8 -4 15 -10 15 -5 0 -12 11 -16 25 -3 14 -10 25 -16 25
-5 0 -6 5 -3 10 3 6 -1 10 -9 10 -9 0 -17 7 -17 15 -1 8 -2 19 -3 23 0 4 -13
20 -28 35 -25 25 -33 44 -29 69 0 4 -7 4 -16 1 -11 -4 -14 -3 -9 5 4 7 3 12
-3 12 -6 0 -13 11 -17 25 -3 14 -9 23 -13 21 -4 -3 -13 4 -20 16 -10 16 -10
19 1 12 7 -4 5 2 -4 13 -10 11 -18 25 -18 32 0 7 -4 9 -10 6 -6 -3 -10 4 -10
17 0 18 -2 20 -10 8 -8 -12 -10 -11 -10 7 0 12 -11 33 -24 46 -14 14 -22 28
-19 31 4 3 1 6 -5 6 -7 0 -12 7 -12 16 0 8 -4 12 -10 9 -5 -3 -10 3 -10 15 0
12 -4 18 -10 15 -5 -3 -10 3 -10 14 0 11 -8 26 -19 33 -10 7 -20 18 -21 23 -1
6 -7 20 -13 33 -8 17 -13 19 -19 10 -5 -9 -8 -3 -8 15 0 16 -4 26 -10 22 -5
-3 -12 5 -16 19 -3 13 -12 27 -21 30 -8 3 -12 10 -9 15 3 5 -1 11 -9 15 -8 3
-15 15 -15 26 0 12 -4 18 -10 15 -5 -3 -10 1 -10 10 0 9 -4 14 -9 11 -8 -5
-24 29 -22 46 0 4 -8 10 -19 13 -18 6 -24 17 -21 38 1 4 -6 10 -14 13 -8 4
-15 13 -15 21 0 8 -4 11 -10 8 -5 -3 -10 1 -10 11 0 9 -10 25 -22 35 -11 11
-18 19 -14 19 4 0 0 7 -8 16 -9 8 -16 22 -16 30 0 8 -4 12 -10 9 -5 -3 -10 1
-10 10 0 9 -4 14 -9 11 -5 -4 -12 7 -16 24 -4 17 -13 30 -21 30 -9 0 -13 4
-10 9 3 5 -1 11 -9 15 -8 3 -15 11 -15 18 0 8 -9 20 -20 28 -14 10 -16 16 -7
22 8 5 7 8 -5 8 -10 0 -17 6 -15 13 1 6 -4 11 -10 10 -7 -2 -13 4 -13 13 0 8
-4 12 -10 9 -6 -3 -7 1 -4 9 3 9 1 16 -5 16 -6 0 -11 7 -11 16 0 8 -4 12 -10
9 -5 -3 -10 3 -10 14 0 12 -5 20 -11 18 -6 -1 -13 6 -14 16 -2 10 -14 28 -27
41 -13 12 -24 29 -26 36 -4 18 -23 31 -34 24 -4 -3 -8 0 -8 5 0 6 5 11 11 11
5 0 -1 10 -14 23 -25 22 -27 26 -27 50 0 9 -2 9 -9 -1 -6 -10 -10 -8 -14 8 -4
14 -10 19 -18 14 -8 -4 -10 -3 -5 4 11 18 -55 107 -69 94 -5 -4 -5 -2 -2 4 3
6 -3 20 -13 32 -11 12 -20 27 -20 33 0 7 -3 9 -6 6 -8 -7 -44 36 -44 52 0 7
-7 14 -15 17 -8 4 -13 10 -10 14 6 9 -30 52 -38 44 -3 -3 -8 5 -12 17 -4 12
-18 34 -31 48 -13 14 -24 30 -24 35 0 5 -12 19 -27 32 -16 13 -24 24 -20 24 5
0 -8 15 -28 34 -23 22 -31 36 -23 39 8 3 2 9 -14 16 -18 6 -28 18 -28 31 0 11
-7 20 -15 20 -8 0 -15 7 -15 16 0 9 -5 12 -12 8 -6 -4 -8 -3 -5 3 4 5 -3 19
-13 31 -11 12 -20 27 -20 34 0 10 -2 10 -9 0 -6 -10 -10 -8 -16 10 -4 12 -7
26 -6 31 1 4 -4 7 -9 7 -6 0 -10 8 -10 18 0 14 -2 15 -10 2 -7 -10 -10 -11
-11 -2 -4 33 -6 37 -17 35 -7 -2 -12 4 -12 13 0 8 -5 12 -10 9 -6 -4 -10 -3
-9 2 1 4 -2 19 -6 31 -6 18 -10 20 -16 10 -6 -9 -9 -7 -9 9 0 12 -8 24 -19 28
-13 4 -17 12 -13 27 3 14 1 19 -6 14 -7 -4 -12 -2 -12 4 0 6 -4 9 -9 6 -5 -4
-12 7 -16 24 -4 16 -10 29 -13 29 -21 -3 -30 4 -36 26 -4 14 -11 25 -17 25 -6
0 -7 5 -4 10 3 6 -1 10 -9 10 -9 0 -16 6 -16 14 0 8 -7 16 -15 20 -8 3 -15 12
-15 19 0 8 -11 23 -25 33 -14 10 -25 24 -25 30 0 7 -7 14 -15 18 -8 3 -15 15
-15 26 0 11 -3 19 -7 19 -21 -3 -33 2 -33 16 0 8 -11 25 -25 39 -14 14 -25 30
-25 36 0 5 -5 10 -11 10 -5 0 -7 5 -4 10 3 6 -2 10 -11 10 -10 0 -15 3 -11 6
3 3 -5 16 -19 29 -13 12 -24 28 -24 35 0 7 -3 10 -7 7 -4 -4 -12 6 -19 23 -7
16 -20 30 -29 30 -8 0 -15 7 -15 15 0 8 -11 25 -25 39 -14 14 -25 29 -25 34 0
6 -7 12 -15 16 -8 3 -15 10 -15 15 0 6 -18 29 -40 51 -22 22 -40 50 -40 61 0
11 -4 18 -9 14 -12 -7 -41 22 -41 41 0 8 -4 12 -10 9 -5 -3 -10 1 -10 10 0 9
-4 14 -9 10 -5 -3 -12 -1 -16 5 -3 5 0 10 7 11 7 0 3 5 -9 11 -13 6 -25 19
-28 29 -4 11 -11 19 -16 19 -5 0 -9 5 -9 11 0 14 -39 49 -54 49 -6 0 -5 4 2 9
11 6 10 11 -3 25 -9 9 -20 14 -25 11 -4 -3 -11 6 -14 20 -4 14 -11 25 -16 25
-6 0 -10 8 -10 18 0 14 -2 15 -10 2 -8 -13 -10 -12 -10 3 0 10 -11 29 -25 43
-14 14 -25 29 -25 34 0 6 -7 10 -15 10 -8 0 -15 6 -15 14 0 8 -18 34 -40 57
-22 24 -40 51 -40 61 0 10 -3 17 -7 17 -19 -3 -33 2 -33 12 0 6 -9 22 -19 35
-14 17 -21 21 -25 12 -4 -7 -4 -3 -2 9 2 15 -2 23 -15 26 -11 3 -19 9 -18 14
1 4 1 15 -1 23 -1 11 -4 9 -10 -5 -8 -19 -9 -19 -9 3 -1 12 -5 22 -10 22 -5 0
-13 9 -16 20 -3 11 -14 20 -22 20 -9 0 -14 3 -10 6 3 4 1 12 -6 19 -7 7 -18
22 -26 33 -8 12 -18 19 -23 16 -4 -3 -8 4 -8 15 0 12 -5 21 -11 21 -5 0 -7 5
-3 12 4 7 3 8 -5 4 -7 -4 -18 5 -29 23 -9 17 -20 31 -24 31 -5 0 -8 7 -8 15 0
8 -5 14 -11 13 -6 -2 -13 5 -14 14 -4 21 -30 49 -38 41 -3 -3 -9 6 -13 21 -6
24 -15 31 -37 27 -5 -1 -6 3 -2 9 3 5 0 10 -7 10 -10 0 -10 2 1 9 11 7 9 10
-8 16 -11 3 -21 13 -21 21 0 8 -7 17 -15 20 -8 4 -15 11 -15 16 0 6 -11 21
-26 34 -14 13 -22 24 -18 24 3 0 -8 13 -25 29 -17 16 -31 34 -31 40 0 6 -4 11
-10 11 -5 0 -10 7 -10 16 0 8 -4 12 -10 9 -5 -3 -10 1 -10 9 0 9 -5 16 -11 16
-5 0 -8 4 -4 9 3 5 -3 12 -14 16 -10 3 -22 17 -25 31 -4 14 -11 22 -16 19 -6
-3 -10 1 -10 9 0 9 -3 16 -8 16 -4 0 -16 16 -26 35 -10 19 -22 32 -27 30 -4
-3 -10 4 -14 15 -3 11 -11 20 -16 20 -5 0 -9 7 -9 15 0 8 -6 14 -12 13 -7 -2
-12 3 -10 10 1 6 -3 12 -9 12 -5 0 -8 4 -4 9 3 5 -4 12 -15 16 -18 6 -24 17
-21 38 0 4 -6 7 -14 7 -8 0 -15 6 -15 14 0 8 -7 17 -16 20 -8 3 -12 10 -9 16
3 5 -1 10 -10 10 -9 0 -14 4 -11 8 3 5 -4 15 -15 22 -10 8 -19 20 -19 27 0 7
-11 20 -25 29 -14 9 -24 19 -21 21 3 3 -7 16 -22 30 -15 14 -27 32 -27 42 -1
9 -6 15 -13 13 -7 -1 -12 5 -12 14 0 8 -4 12 -10 9 -5 -3 -10 1 -10 10 0 8 -7
18 -15 21 -8 4 -12 10 -10 15 3 4 -3 14 -15 21 -11 7 -20 17 -20 23 0 6 -9 17
-20 25 -11 8 -20 19 -20 25 0 5 -14 23 -30 39 -16 16 -27 32 -24 37 6 11 -31
30 -42 21 -5 -4 -2 2 6 13 8 11 11 17 6 13 -9 -7 -45 25 -48 44 -2 7 -13 22
-25 34 -13 12 -23 27 -23 34 0 7 -3 10 -7 6 -4 -4 -13 8 -19 26 -9 22 -13 27
-13 13 -1 -14 -7 -8 -22 20 -12 22 -30 47 -40 56 -11 9 -19 21 -19 28 0 6 -5
11 -12 11 -6 0 -8 3 -5 6 4 4 -6 18 -21 30 -15 13 -24 24 -19 24 4 0 -1 8 -10
18 -10 11 -21 17 -24 16 -4 -2 -9 10 -13 26 -3 19 -12 30 -22 30 -10 0 -15 3
-11 6 3 4 1 12 -6 19 -27 30 -62 79 -62 89 -1 6 -7 10 -14 8 -7 -1 -10 2 -6 7
3 6 -4 15 -15 21 -11 6 -19 19 -18 28 2 9 -3 17 -9 17 -7 0 -12 3 -10 7 1 3
-11 19 -28 33 -16 15 -23 24 -15 20 8 -5 2 7 -15 26 -16 19 -33 35 -37 37 -5
2 -8 10 -8 18 0 9 -4 12 -10 9 -5 -3 -10 1 -10 9 0 9 -9 25 -19 35 -11 11 -17
22 -13 25 3 3 -2 6 -11 6 -10 0 -16 3 -16 8 3 19 -2 33 -11 27 -5 -3 -10 3
-10 13 0 11 -7 22 -15 26 -8 3 -15 16 -15 28 0 19 -2 20 -10 8 -8 -13 -10 -12
-10 3 0 10 -4 16 -9 13 -5 -4 -12 7 -16 23 -3 17 -14 31 -26 34 -11 3 -19 14
-19 25 0 11 -7 22 -15 26 -8 3 -15 12 -15 20 0 7 -7 16 -15 20 -8 3 -15 14
-15 25 0 11 -9 22 -20 26 -11 3 -20 15 -20 25 0 10 -7 21 -16 24 -8 3 -12 10
-9 16 3 5 -1 10 -9 10 -9 0 -16 6 -16 14 0 7 -11 26 -25 42 -41 47 -44 52 -38
58 4 3 1 6 -5 6 -7 0 -12 10 -12 23 0 18 -2 19 -10 7 -9 -14 -14 -7 -11 13 1
4 -6 10 -14 13 -8 4 -15 14 -15 24 0 10 -7 20 -15 24 -8 3 -15 14 -15 25 0 11
-9 22 -20 26 -11 3 -21 11 -21 16 -1 5 -2 13 -3 18 0 5 -11 18 -24 29 -13 11
-24 29 -25 40 0 12 -4 19 -8 16 -4 -2 -10 5 -14 16 -4 11 -10 18 -15 15 -5 -3
-11 8 -15 25 -4 17 -11 28 -16 24 -5 -3 -9 2 -9 10 0 9 -4 16 -10 16 -5 0 -10
6 -10 13 0 7 -12 26 -27 42 -16 16 -29 33 -29 37 -1 5 -2 15 -3 23 0 8 -5 14
-10 13 -5 -2 -10 2 -12 7 -2 6 -9 17 -16 25 -7 8 -13 19 -12 23 0 5 -8 16 -19
25 -10 9 -27 34 -37 54 -9 21 -21 36 -25 33 -8 -5 -25 42 -21 58 1 5 -3 6 -9
2 -5 -3 -10 1 -10 9 0 9 -5 15 -11 14 -6 -2 -13 6 -15 17 -1 11 -8 21 -13 23
-6 2 -11 10 -11 18 0 9 -4 12 -10 9 -5 -3 -10 1 -10 11 0 9 -8 23 -17 31 -11
9 -12 11 -3 7 11 -6 10 -2 -3 13 -9 11 -15 23 -12 26 3 4 2 5 -2 2 -4 -3 -14
9 -23 27 -9 18 -21 32 -27 31 -6 -1 -14 13 -17 31 -4 18 -17 43 -31 56 -14 13
-25 30 -25 37 0 19 -26 44 -35 35 -4 -4 -5 -2 -4 3 5 16 -12 59 -30 75 -25 24
-42 60 -35 73 4 7 4 9 -1 5 -11 -10 -33 15 -41 46 -3 15 -15 33 -25 39 -11 7
-19 17 -19 24 0 20 -36 83 -44 76 -3 -3 -9 8 -12 25 -4 18 -10 29 -15 26 -5
-3 -9 1 -9 8 0 8 -9 21 -20 31 -12 10 -18 22 -15 27 3 6 1 10 -5 10 -6 0 -8 5
-5 10 3 6 -1 13 -9 16 -9 3 -16 15 -16 25 0 11 -7 22 -16 26 -8 3 -13 12 -10
20 3 7 -1 16 -9 19 -8 4 -15 10 -15 16 0 5 -7 16 -15 24 -8 9 -15 27 -15 42 0
21 -2 24 -10 12 -8 -12 -10 -10 -10 8 0 13 -4 21 -9 18 -5 -4 -13 8 -16 26 -4
17 -18 43 -31 57 -14 15 -24 38 -24 56 0 23 -3 27 -10 15 -6 -10 -10 -11 -10
-2 0 24 -2 27 -16 35 -8 5 -12 12 -9 18 4 5 2 9 -4 9 -6 0 -7 7 -4 17 4 11 3
14 -5 9 -11 -6 -17 12 -13 37 1 5 -3 6 -9 2 -6 -4 -13 7 -16 24 -4 17 -10 31
-15 31 -5 0 -9 7 -9 15 0 8 -4 15 -9 15 -9 0 -26 48 -22 63 1 5 -3 6 -8 3 -10
-6 -41 53 -41 77 0 9 -10 23 -22 31 -12 9 -19 16 -16 16 4 0 2 14 -3 30 -6 17
-15 30 -20 30 -5 0 -9 12 -10 28 0 23 -1 24 -8 7 -7 -16 -10 -12 -15 23 -4 23
-12 40 -17 36 -5 -3 -9 4 -9 15 0 12 -4 21 -9 21 -5 0 -12 19 -16 41 -5 29
-10 38 -16 28 -6 -10 -9 -8 -9 9 0 14 -4 21 -11 17 -6 -4 -9 -1 -8 6 3 24 -13
79 -22 73 -5 -3 -9 2 -9 10 0 9 -4 16 -10 16 -5 0 -10 11 -10 25 0 14 -7 28
-15 31 -13 5 -13 9 -3 23 7 9 9 13 4 9 -12 -10 -32 13 -40 47 -10 41 -29 85
-38 85 -3 0 -10 15 -13 33 -4 17 -17 43 -29 56 -11 13 -14 20 -6 16 11 -6 10
-3 -2 12 -10 11 -18 30 -18 42 0 12 -4 20 -8 17 -8 -5 -22 24 -42 87 -6 20
-16 37 -21 37 -5 0 -8 3 -8 8 1 4 0 10 -1 15 -1 4 -3 10 -5 15 -14 51 -18 62
-26 62 -5 0 -9 12 -9 26 0 14 -4 23 -9 20 -5 -4 -12 13 -16 36 -4 24 -15 52
-25 63 -10 11 -21 38 -24 60 -4 22 -11 42 -16 43 -6 2 -10 10 -10 18 0 8 -4
14 -9 14 -5 0 -12 23 -16 50 -4 28 -11 47 -16 44 -8 -4 -11 9 -8 32 0 4 -5 10
-12 15 -7 4 -14 22 -15 41 -2 18 -8 34 -13 36 -6 2 -11 10 -11 18 0 8 -4 14
-10 14 -5 0 -10 5 -10 11 0 5 6 7 13 3 8 -6 8 -3 -1 9 -8 9 -16 31 -19 49 -2
18 -13 42 -23 53 -10 11 -21 40 -24 65 -3 25 -10 46 -16 48 -5 2 -10 20 -11
40 0 28 -2 32 -8 17 -6 -14 -10 -6 -15 34 -4 29 -14 64 -23 77 -8 13 -11 24
-7 24 5 0 3 4 -3 8 -12 8 -21 37 -22 75 -1 12 -5 16 -13 11 -8 -5 -7 0 2 11 9
11 10 16 3 11 -9 -5 -13 1 -13 21 0 16 -5 34 -12 41 -6 6 -13 26 -14 44 -2 18
-8 34 -13 36 -6 2 -11 17 -11 32 0 16 -4 31 -9 35 -5 3 -13 30 -17 61 -4 37
-9 51 -15 43 -6 -10 -9 -7 -10 11 -1 14 -1 31 0 39 2 7 -2 10 -8 6 -9 -5 -17
46 -12 78 0 4 -4 7 -10 7 -5 0 -7 5 -4 10 3 6 2 10 -2 10 -5 0 -10 17 -11 37
-2 20 -8 43 -14 50 -6 8 -13 33 -15 56 -3 23 -9 45 -15 48 -5 3 -9 9 -9 13 1
3 1 18 1 34 0 21 -2 24 -10 12 -8 -12 -10 -10 -10 8 0 16 4 21 13 16 7 -5 6
-1 -3 10 -14 18 -18 30 -22 79 -1 15 -6 27 -10 27 -4 0 -8 8 -8 18 0 10 -3 22
-7 26 -4 4 -8 19 -9 34 -1 15 -2 27 -3 27 -2 0 -5 20 -7 45 -3 25 -10 48 -16
51 -6 4 -5 9 3 12 10 4 10 6 2 6 -7 1 -13 10 -13 20 0 11 -6 22 -12 24 -10 4
-10 6 0 6 6 1 12 9 12 19 0 14 -2 15 -10 2 -7 -11 -10 -5 -11 25 -1 22 -2 45
-4 50 -1 6 -3 20 -3 33 -1 13 -6 21 -10 18 -5 -3 -9 1 -9 9 0 8 3 12 7 10 4
-2 7 2 7 10 0 8 -4 12 -9 9 -4 -3 -8 5 -8 18 0 13 -6 30 -12 37 -11 11 -10 12
0 6 11 -6 12 -3 3 13 -6 11 -13 43 -15 71 -2 28 -8 57 -14 64 -7 8 -7 18 -2
27 6 8 10 20 10 25 0 6 -5 3 -10 -5 -7 -11 -10 -4 -10 28 0 23 -4 42 -10 42
-5 0 -9 10 -9 23 0 12 -2 47 -6 77 -4 30 -7 66 -6 80 1 20 -1 22 -9 10 -13
-21 -13 -3 1 22 8 15 8 19 0 14 -7 -5 -11 6 -11 33 0 23 -5 41 -10 41 -6 0
-10 12 -9 28 3 53 -14 207 -22 210 -5 2 -9 8 -9 13 0 6 5 7 10 4 6 -3 10 -1
10 4 0 6 -4 11 -10 11 -5 0 -10 25 -10 56 0 41 -3 53 -12 48 -10 -6 -10 -4 0
8 8 10 9 19 3 22 -5 4 -10 19 -10 34 0 15 -3 59 -6 97 -3 39 -6 80 -6 93 1 16
-3 21 -12 16 -9 -5 -9 -4 1 7 15 16 16 33 0 23 -7 -5 -8 -3 -2 7 12 19 14 39
4 39 -7 0 -13 66 -10 133 0 16 -4 26 -9 22 -6 -3 -8 3 -5 15 2 11 6 29 8 40 3
11 1 18 -5 15 -13 -9 -11 9 4 24 6 8 7 11 1 8 -10 -5 -17 37 -15 81 1 16 1 7
-5 267 -4 150 -10 235 -17 244 -9 12 -9 13 1 7 16 -10 13 25 -3 36 -6 5 -5 8
3 8 6 0 12 9 12 19 0 11 -6 22 -12 24 -10 4 -10 6 0 6 6 1 12 9 12 19 0 14 -2
15 -10 2 -7 -12 -9 -10 -7 7 0 12 5 19 9 17 4 -3 8 2 8 11 0 10 -5 13 -12 9
-7 -4 -8 -3 -4 4 12 19 16 53 5 47 -5 -4 -9 1 -9 10 0 9 5 13 10 10 6 -3 10
-1 10 4 0 6 -4 11 -10 11 -5 0 -10 5 -10 11 0 5 6 7 13 3 9 -6 9 -5 0 7 -10
12 -10 18 -1 27 9 9 9 12 -1 12 -11 0 -11 3 0 17 10 11 10 14 2 9 -7 -4 -13
-2 -13 3 0 6 5 11 10 11 6 0 10 5 10 11 0 5 -4 8 -8 5 -5 -3 -9 1 -9 9 0 8 4
12 9 9 4 -3 8 7 8 23 0 21 -3 24 -10 13 -7 -12 -9 -10 -7 7 0 12 5 19 9 17 13
-8 9 21 -4 35 -10 11 -10 13 0 7 8 -5 12 0 12 13 0 12 -6 21 -12 21 -10 0 -10
2 -1 8 7 5 12 54 12 152 1 80 3 157 5 173 2 15 3 27 2 26 0 0 -7 -3 -13 -6z
m574 -4355 c-3 -8 -6 -5 -6 6 -1 11 2 17 5 13 3 -3 4 -12 1 -19z m8830 -13500
c-3 -8 -6 -5 -6 6 -1 11 2 17 5 13 3 -3 4 -12 1 -19z m880 -6070 c-3 -8 -6 -5
-6 6 -1 11 2 17 5 13 3 -3 4 -12 1 -19z"/>
<path d="M12441 14724 c0 -11 3 -14 6 -6 3 7 2 16 -1 19 -3 4 -6 -2 -5 -13z"/>
<path d="M24751 8274 c0 -11 3 -14 6 -6 3 7 2 16 -1 19 -3 4 -6 -2 -5 -13z"/>
</g>
</svg>
