<?xml version="1.0" standalone="no"?>
<!DOCTYPE svg PUBLIC "-//W3C//DTD SVG 20010904//EN"
 "http://www.w3.org/TR/2001/REC-SVG-20010904/DTD/svg10.dtd">
<svg version="1.0" xmlns="http://www.w3.org/2000/svg"
 width="560.000000pt" height="560.000000pt" viewBox="0 0 560.000000 560.000000"
 preserveAspectRatio="xMidYMid meet">
<metadata>
Created by potrace 1.11, written by Peter Selinger 2001-2013
</metadata>
<g transform="translate(0.000000,560.000000) scale(0.100000,-0.100000)"
fill="#000000" stroke="none">
<path d="M2490 5585 c-294 -36 -589 -115 -818 -221 -41 -19 -76 -34 -78 -34
-3 0 -55 -27 -117 -61 -593 -322 -1045 -832 -1286 -1449 -44 -114 -103 -297
-115 -360 -2 -14 -10 -47 -16 -75 -19 -80 -33 -170 -50 -315 -13 -119 -5 -529
14 -655 14 -91 38 -216 61 -309 18 -75 64 -218 100 -311 378 -976 1261 -1659
2295 -1778 133 -16 476 -19 600 -6 289 31 608 116 860 230 746 335 1317 985
1545 1757 38 130 35 117 69 297 36 194 37 201 41 460 4 256 -4 365 -40 557
-194 1042 -968 1892 -1985 2181 -139 40 -223 58 -385 83 -142 22 -546 27 -695
9z"/>
</g>
</svg>
